<?xml version="1.0" encoding="utf-8"?>
<!-- Generator: Adobe Illustrator 16.0.0, SVG Export Plug-In . SVG Version: 6.00 Build 0)  -->
<!DOCTYPE svg PUBLIC "-//W3C//DTD SVG 1.1//EN" "http://www.w3.org/Graphics/SVG/1.1/DTD/svg11.dtd">
<svg version="1.1" xmlns="http://www.w3.org/2000/svg" xmlns:xlink="http://www.w3.org/1999/xlink" x="0px" y="0px"
	 width="191.215px" height="163.713px" viewBox="0 0 191.215 163.713" enable-background="new 0 0 191.215 163.713"
	 xml:space="preserve">
<g id="Background" display="none">
	<g display="inline">
		<rect x="-75.049" y="-531.108" fill="#2FBABA" width="800" height="800"/>
	</g>
</g>
<g id="Objects">
	<g>
		<path fill="#F4F1ED" d="M23.066,77.153c0,0-15.739,17.282,2.755,28.417c0,0-15.598,25.687,11.64,32.468
			c0,0,2.6,18.508,27.571,13.35l4.282-37.978L46.662,71.669L23.066,77.153z"/>
		<path fill="#F4F1ED" d="M166.039,77.495c0,0,17.996,15.887-0.5,27.021c0,0,15.598,25.686-11.639,32.467
			c0,0-0.491,19.563-25.462,14.404l-4.283-37.978l22.654-41.741L166.039,77.495z"/>
		<g>
			<path fill="#EFE2D5" d="M149.584,39.96c0,0,33.294,8.323,40.429,22.196c7.135,13.873-19.422,17.044-29.331,14.666
				c-9.91-2.379-13.873-5.153-13.873-5.153l-5.946-23.782L149.584,39.96z"/>
			<path fill="#DDC8B6" d="M191.011,68.145c0.425-1.726,0.174-3.708-0.998-5.988c-7.135-13.873-40.429-22.196-40.429-22.196
				l-8.721,7.927C140.863,47.887,177.741,51.952,191.011,68.145z"/>
			<path fill="#F9B9C7" d="M146.016,54.051c0,0,30.917,5.331,34.485,11.673c3.566,6.341-21.46,7.744-30.182,3.343L146.016,54.051z"
				/>
		</g>
		<g>
			<path fill="#EFE2D5" d="M41.632,39.96c0,0-33.295,8.323-40.43,22.196C-5.934,76.029,20.625,79.2,30.534,76.822
				c9.91-2.379,13.873-5.153,13.873-5.153l5.946-23.782L41.632,39.96z"/>
			<path fill="#DDC8B6" d="M0.204,68.145c-0.423-1.726-0.174-3.708,0.998-5.988c7.135-13.873,40.43-22.196,40.43-22.196l8.721,7.927
				C50.353,47.887,13.474,51.952,0.204,68.145z"/>
			<path fill="#F9B9C7" d="M45.199,54.051c0,0-30.917,5.331-34.484,11.673c-3.567,6.341,21.46,7.744,30.18,3.343L45.199,54.051z"/>
		</g>
		<g>
			<ellipse fill="#EFE2D5" cx="95.922" cy="90.069" rx="58.703" ry="73.644"/>
			<path fill="#F4F1ED" d="M48.593,54.923c0,0,12.571,4.985,20.015-8.369c0,0,12.741,16.869,27.314,0c0,0,6.313,22.257,25.818,7.497
				c0,0,20.991,16.108,26.531-5.02l10.701-6.234c0,0,1.419-19.818-18.108-21.947c0,0,3.699-10.995-7.532-15.9
				c-11.327-4.948-18.353,7.336-18.353,7.336s-2.708-12.96-13.437-12.258C90.813,0.731,89.408,12.285,89.408,12.285
				S84.275,1.049,71.973,3.19c-12.45,2.168-14.546,14.496-14.546,14.496S25.182,12.171,32.38,42.752L48.593,54.923z"/>
			<g>
				<g>
					<path fill="#C1AA95" d="M97.504,140.366c-12.28,0-14.255-10.549-14.275-10.655l1.349-0.236
						c0.069,0.388,1.819,9.525,12.926,9.525c4.686,0,8.285-1.607,10.695-4.775c1.798-2.363,2.225-4.725,2.229-4.749l1.348,0.235
						C111.756,129.817,109.78,140.366,97.504,140.366z"/>
				</g>
				<g>
					<path fill="#F9B9C7" d="M107.948,117.188c-1.782-6.625-10.444-6.625-10.444-6.625s-8.664,0-10.446,6.625
						c-1.208,4.489,5.604,12.379,10.446,12.379C102.344,129.566,109.155,121.677,107.948,117.188z"/>
					<g>
						<ellipse cx="125.958" cy="89.13" rx="4.217" ry="5.681"/>
						<ellipse cx="70.369" cy="89.13" rx="4.217" ry="5.681"/>
					</g>
				</g>
			</g>
		</g>
	</g>
</g>
</svg>
