<?xml version="1.0" encoding="utf-8"?>
<!-- Generator: Adobe Illustrator 16.0.0, SVG Export Plug-In . SVG Version: 6.00 Build 0)  -->
<!DOCTYPE svg PUBLIC "-//W3C//DTD SVG 1.1//EN" "http://www.w3.org/Graphics/SVG/1.1/DTD/svg11.dtd">
<svg version="1.1" xmlns="http://www.w3.org/2000/svg" xmlns:xlink="http://www.w3.org/1999/xlink" x="0px" y="0px"
	 width="178.774px" height="160.778px" viewBox="0 0 178.774 160.778" enable-background="new 0 0 178.774 160.778"
	 xml:space="preserve">
<g id="Background" display="none">
	<g display="inline">
		<rect x="-310.834" y="-84.627" fill="#2FBABA" width="800" height="800"/>
	</g>
</g>
<g id="Objects">
	<g>
		<g>
			<g>
				<circle fill="#F29700" cx="29.137" cy="29.137" r="29.137"/>
				<circle fill="#E66B3E" cx="29.137" cy="29.137" r="19.02"/>
			</g>
			<g>
				<circle fill="#F29700" cx="148.627" cy="29.137" r="29.137"/>
				<circle fill="#E66B3E" cx="148.627" cy="29.137" r="19.021"/>
			</g>
		</g>
		<g>
			<path fill="#F29700" d="M154.762,36.591c-21.986-22.467-50.235-24.746-62.733-25.215v-0.083c0,0-0.617,0.001-1.703,0.029
				c-1.085-0.028-1.703-0.029-1.703-0.029v0.083c-12.499,0.469-41.794,1.769-62.733,25.215
				c-28.875,32.333-18.292,77.421-2.96,92.754c14.812,14.811,33.475,31.001,65.693,31.399v0.03c0.572,0.014,1.132-0.02,1.703-0.014
				c0.571-0.005,1.13,0.028,1.703,0.014v-0.03c32.218-0.397,50.882-16.588,65.692-31.399
				C173.053,114.013,186.403,68.925,154.762,36.591z"/>
			<g>
				<defs>
					<path id="SVGID_3_" d="M154.762,36.591c-21.986-22.467-50.235-24.746-62.733-25.215v-0.083c0,0-0.617,0.001-1.703,0.029
						c-1.085-0.028-1.703-0.029-1.703-0.029v0.083c-12.499,0.469-41.794,1.769-62.733,25.215
						c-28.875,32.333-18.292,77.421-2.96,92.754c14.812,14.811,33.475,31.001,65.693,31.399v0.03
						c0.572,0.014,1.132-0.02,1.703-0.014c0.571-0.005,1.13,0.028,1.703,0.014v-0.03c32.218-0.397,50.882-16.588,65.692-31.399
						C173.053,114.013,186.403,68.925,154.762,36.591z"/>
				</defs>
				<clipPath id="SVGID_2_">
					<use xlink:href="#SVGID_3_"  overflow="visible"/>
				</clipPath>
				<path clip-path="url(#SVGID_2_)" fill="#FEFEFE" d="M90.325,103.712c-33.803,0-61.592,15.336-64.858,34.97
					c15.5,11.566,37.691,21.748,63.155,22.062v0.03c0.572,0.014,1.132-0.02,1.703-0.014c0.571-0.005,1.13,0.028,1.703,0.014v-0.03
					c25.463-0.314,47.654-10.495,63.154-22.061C151.916,119.049,124.127,103.712,90.325,103.712z"/>
				<g clip-path="url(#SVGID_2_)">
					<polygon fill="#670004" points="54.401,15.072 71.245,46.499 69.167,12.455 					"/>
					<path fill="#670004" d="M73.529,12.554l15.61,31.845l15.754-32.432l-11.1-10.176c0,0-19.37,5.147-20.265,6.188
						C72.635,9.019,73.529,12.554,73.529,12.554z"/>
					<polygon fill="#670004" points="123.171,13.912 107.12,46.499 108.405,11.294 					"/>
					<polygon fill="#670004" points="173.012,57.103 148.944,69.027 178.774,79.635 					"/>
					<polygon fill="#670004" points="175.146,92.437 144.776,82.956 170.479,117.114 					"/>
					<polygon fill="#670004" points="9.018,57.103 33.086,69.027 3.255,79.635 					"/>
					<polygon fill="#670004" points="6.884,92.437 37.253,82.956 11.55,117.114 					"/>
				</g>
			</g>
			<g>
				<g>
					<g>
						<circle fill="#FFFFFF" cx="56.737" cy="86.036" r="9.057"/>
						<circle cx="56.737" cy="86.036" r="6.4"/>
						<circle fill="#FFFFFF" cx="60.964" cy="82.957" r="3.321"/>
					</g>
					<g>
						<circle fill="#FFFFFF" cx="123.914" cy="86.036" r="9.057"/>
						<circle cx="123.915" cy="86.036" r="6.4"/>
						<circle fill="#FFFFFF" cx="128.141" cy="82.957" r="3.321"/>
					</g>
				</g>
				<g>
					<g>
						<path fill="#B7B7BC" d="M89.286,139.066c-19.853,0-23.048-17.058-23.079-17.229l2.181-0.383
							c0.109,0.629,2.943,15.4,20.898,15.4c7.577,0,13.394-2.599,17.292-7.721c2.906-3.82,3.597-7.637,3.603-7.676l2.181,0.38
							C112.331,122.008,109.135,139.066,89.286,139.066z"/>
					</g>
				</g>
				<path fill="#E96D46" d="M106.896,100.82c-2.827-10.51-16.571-10.51-16.571-10.51s-13.745,0-16.572,10.51
					c-1.917,7.125,8.89,16.293,16.572,16.293C98.004,117.114,108.812,107.945,106.896,100.82z"/>
			</g>
		</g>
	</g>
</g>
</svg>
