<?xml version="1.0" encoding="utf-8"?>
<!-- Generator: Adobe Illustrator 16.0.0, SVG Export Plug-In . SVG Version: 6.00 Build 0)  -->
<!DOCTYPE svg PUBLIC "-//W3C//DTD SVG 1.1//EN" "http://www.w3.org/Graphics/SVG/1.1/DTD/svg11.dtd">
<svg version="1.1" xmlns="http://www.w3.org/2000/svg" xmlns:xlink="http://www.w3.org/1999/xlink" x="0px" y="0px"
	 width="210.532px" height="199.675px" viewBox="0 0 210.532 199.675" enable-background="new 0 0 210.532 199.675"
	 xml:space="preserve">
<g id="Background" display="none">
	<g display="inline">
		<rect x="-531.291" y="-65.179" fill="#2FBABA" width="800" height="800"/>
	</g>
</g>
<g id="Objects">
	<g>
		<path fill="#925D00" d="M107.199,0.033V0c-0.651,0-1.288,0.011-1.933,0.017C104.621,0.011,103.984,0,103.333,0v0.033
			C16.96,1.431-7.146,49.953,1.724,120.06c9.001,71.142,97.431,79.615,103.425,79.615s-4.065,0,0.235,0s94.424-8.473,103.425-79.615
			C217.679,49.953,193.573,1.431,107.199,0.033z"/>
		<g>
			<g>
				<g>
					<g>
						<path fill="#F5B456" d="M142.117,52.587c0,0,15.207-18.221,20.207-17.721s18.5,22.707,19,26.854s-22,13.146-22,13.146
							L142.117,52.587z"/>
						<path fill="#E66B3E" d="M146.27,58.054c0,0,8.746-10.479,11.621-10.191c2.875,0.287,10.639,13.059,10.926,15.443
							c0.289,2.385-12.652,7.561-12.652,7.561L146.27,58.054z"/>
					</g>
					<g>
						<path fill="#F5B456" d="M69.023,52.587c0,0-15.207-18.221-20.207-17.721s-18.5,22.707-19,26.854s22,13.146,22,13.146
							L69.023,52.587z"/>
						<path fill="#E66B3E" d="M64.873,58.054c0,0-8.746-10.479-11.621-10.191c-2.877,0.287-10.641,13.059-10.928,15.443
							s12.652,7.561,12.652,7.561L64.873,58.054z"/>
					</g>
				</g>
				<path fill="#F5B456" d="M128.998,172.323c0.133-0.143,0.264-0.285,0.398-0.421c56.627-9.287,46.395-64.712,37.018-93.608
					c-10.516-32.4-55.408-33.394-60.678-33.394c-5.271,0-50.164,0.993-60.678,33.394c-9.533,29.369-19.949,86.145,39.846,94.029
					H128.998z"/>
				<path fill="#F7CC8C" d="M106.455,139.696c-32.646-22.093-57.645-6.579-65.855-0.002c5.113,16.048,17.816,29.137,44.305,32.629
					h0.377c3.369,7.019,11.916,12.006,21.934,12.006c10.168,0,18.824-5.139,22.086-12.324c0.031-0.034,0.063-0.069,0.096-0.103
					c24.688-4.049,36.664-16.867,41.547-32.433C144.416,115.417,106.455,139.696,106.455,139.696z"/>
				<g>
					<g>
						<ellipse cx="132.287" cy="99.866" rx="4" ry="8.419"/>
						<ellipse cx="79.563" cy="99.866" rx="4" ry="8.419"/>
					</g>
					<g>
						<g>
							<path fill="#E66B3E" d="M106.344,160.236c-19.078,0-22.148-16.393-22.178-16.557l2.096-0.368
								c0.105,0.604,2.828,14.799,20.082,14.799c7.281,0,12.871-2.497,16.617-7.42c2.793-3.671,3.457-7.339,3.463-7.376l2.096,0.365
								C128.49,143.844,125.418,160.236,106.344,160.236z"/>
						</g>
					</g>
					<path fill="#C77B00" d="M120.809,131.428c-2.297-8.541-13.467-8.541-13.467-8.541s-11.168,0-13.467,8.541
						c-1.557,5.79,7.225,13.241,13.467,13.241S122.365,137.218,120.809,131.428z"/>
				</g>
			</g>
			<g>
				<g>
					<g>
						<path fill="#E66B3E" d="M136.566,133.962l-0.557-0.832c0.297-0.196,30.047-19.65,73.084-10.732l-0.203,0.979
							C166.262,114.545,136.857,133.767,136.566,133.962z"/>
					</g>
					<g>
						<path fill="#E66B3E" d="M203.334,150.664c-25.477-21.802-64.916-8.214-65.313-8.072l-0.334-0.943
							c0.402-0.141,40.379-13.925,66.297,8.256L203.334,150.664z"/>
					</g>
					<g>
						<path fill="#E66B3E" d="M200.611,178.275c-21.607-25.451-63.916-27.229-64.342-27.243l0.035-1
							c0.43,0.016,43.178,1.813,65.068,27.597L200.611,178.275z"/>
					</g>
				</g>
				<g>
					<g>
						<path fill="#E66B3E" d="M73.965,133.962l0.557-0.832c-0.297-0.196-30.047-19.65-73.084-10.732l0.203,0.979
							C44.27,114.545,73.674,133.767,73.965,133.962z"/>
					</g>
					<g>
						<path fill="#E66B3E" d="M7.197,150.664c25.477-21.802,64.916-8.214,65.313-8.072l0.334-0.943
							c-0.402-0.141-40.379-13.925-66.297,8.256L7.197,150.664z"/>
					</g>
					<g>
						<path fill="#E66B3E" d="M9.92,178.275c21.607-25.451,63.916-27.229,64.342-27.243l-0.035-1
							c-0.43,0.016-43.178,1.813-65.068,27.597L9.92,178.275z"/>
					</g>
				</g>
			</g>
		</g>
	</g>
</g>
</svg>
