<?xml version="1.0" encoding="utf-8"?>
<!-- Generator: Adobe Illustrator 16.0.0, SVG Export Plug-In . SVG Version: 6.00 Build 0)  -->
<!DOCTYPE svg PUBLIC "-//W3C//DTD SVG 1.1//EN" "http://www.w3.org/Graphics/SVG/1.1/DTD/svg11.dtd">
<svg version="1.1" xmlns="http://www.w3.org/2000/svg" xmlns:xlink="http://www.w3.org/1999/xlink" x="0px" y="0px"
	 width="183.197px" height="154.818px" viewBox="0 0 183.197 154.818" enable-background="new 0 0 183.197 154.818"
	 xml:space="preserve">
<g id="Background" display="none">
	<g display="inline">
		<rect x="-309.504" y="-537.556" fill="#2FBABA" width="800" height="800"/>
	</g>
</g>
<g id="Objects">
	<g>
		<g>
			<circle cx="155.412" cy="27.786" r="27.786"/>
			<circle cx="27.786" cy="27.786" r="27.786"/>
			<ellipse fill="#E8E8E8" cx="91.738" cy="78.689" rx="84.051" ry="76.129"/>
		</g>
		<g>
			<g>
				<g>
					<path fill="#444343" d="M106.292,61.731c-2.711,3.498-2.676,12.433,1.411,15.957c9.41,8.113,9.784,12.485,15.903,18.002
						c10.033,9.046,23.949-4.874,17.621-20.347C134.898,59.872,115.565,49.766,106.292,61.731z"/>
					<g>
						<circle cx="125.387" cy="77.885" r="5.598"/>
					</g>
				</g>
				<g>
					<path fill="#444343" d="M74.896,61.731c2.71,3.498,2.675,12.433-1.413,15.957c-9.41,8.113-9.783,12.485-15.903,18.002
						c-10.033,9.046-23.949-4.874-17.621-20.347C46.29,59.872,65.622,49.766,74.896,61.731z"/>
					<g>
						<circle cx="55.8" cy="77.885" r="5.598"/>
					</g>
				</g>
			</g>
			<ellipse cx="91.738" cy="103.46" rx="21.511" ry="13.574"/>
			<g>
				<g>
					<path d="M91.739,133.495c-20.095,0-23.33-17.267-23.361-17.44l2.206-0.386c0.113,0.636,2.98,15.587,21.155,15.587
						c7.67,0,13.56-2.629,17.505-7.814c2.941-3.866,3.641-7.73,3.647-7.771l2.207,0.385
						C115.066,116.229,111.833,133.495,91.739,133.495z"/>
				</g>
			</g>
		</g>
	</g>
</g>
</svg>
