<?xml version="1.0" encoding="utf-8"?>
<!-- Generator: Adobe Illustrator 16.0.0, SVG Export Plug-In . SVG Version: 6.00 Build 0)  -->
<!DOCTYPE svg PUBLIC "-//W3C//DTD SVG 1.1//EN" "http://www.w3.org/Graphics/SVG/1.1/DTD/svg11.dtd">
<svg version="1.1" xmlns="http://www.w3.org/2000/svg" xmlns:xlink="http://www.w3.org/1999/xlink" x="0px" y="0px"
	 width="190.729px" height="139.282px" viewBox="0 0 190.729 139.282" enable-background="new 0 0 190.729 139.282"
	 xml:space="preserve">
<g id="Background" display="none">
	<g display="inline">
		<rect x="-540.919" y="-546.324" fill="#2FBABA" width="800" height="800"/>
	</g>
</g>
<g id="Objects">
	<g>
		<g>
			<g>
				<g>
					<path fill="#EFE9E9" d="M190.729,28.134c0,0-21.789-2.452-30.547,6.801l-8.359-9.422l5.49-9.004h13.963L190.729,28.134z"/>
					<path fill="#FBC8D1" d="M131.102,10.165c0,0,29.18-10.067,34.716-10.165c5.536-0.099,24.911,28.134,24.911,28.134
						s-17.161-11.071-38.906-2.621L131.102,10.165z"/>
				</g>
				<g>
					<path fill="#EFE9E9" d="M0,28.134c0,0,21.789-2.452,30.547,6.801l8.359-9.422l-5.49-9.004H19.453L0,28.134z"/>
					<path fill="#FBC8D1" d="M59.627,10.165c0,0-29.18-10.067-34.716-10.165C19.375-0.099,0,28.134,0,28.134
						s17.161-11.071,38.906-2.621L59.627,10.165z"/>
				</g>
			</g>
			<path fill="#FBD4D9" d="M160.182,34.935C132.642-0.459,95.123,0,95.123,0S57.607-0.459,30.064,34.935
				C2.52,70.33,11.544,104.808,23.891,118.596c12.348,13.792,29.917,20.687,71.232,20.687s58.886-6.895,71.232-20.687
				C178.704,104.808,187.725,70.33,160.182,34.935z"/>
		</g>
		<g>
			<g>
				<g>
					<circle fill="#FFFFFF" cx="59.626" cy="58.744" r="9.636"/>
					<circle cx="59.627" cy="58.744" r="6.81"/>
					<circle fill="#FFFFFF" cx="64.124" cy="55.468" r="3.533"/>
				</g>
				<g>
					<circle fill="#FFFFFF" cx="131.101" cy="58.744" r="9.636"/>
					<circle cx="131.102" cy="58.744" r="6.81"/>
					<circle fill="#FFFFFF" cx="135.599" cy="55.468" r="3.533"/>
				</g>
			</g>
			<g>
				<ellipse fill="#F9B9C7" cx="94.697" cy="98.83" rx="39.592" ry="32.71"/>
				<g>
					<path fill="#DD8CA5" d="M89.896,98.829c0,6.715-4.089,12.16-9.134,12.16c-5.044,0-9.137-5.445-9.137-12.16
						c0-6.713,4.093-12.156,9.137-12.156C85.807,86.673,89.896,92.116,89.896,98.829z"/>
					<path fill="#DD8CA5" d="M117.771,98.829c0,6.715-4.091,12.16-9.135,12.16c-5.048,0-9.138-5.445-9.138-12.16
						c0-6.713,4.09-12.156,9.138-12.156C113.68,86.673,117.771,92.116,117.771,98.829z"/>
				</g>
			</g>
		</g>
	</g>
</g>
</svg>
