<?xml version="1.0" encoding="utf-8"?>
<!-- Generator: Adobe Illustrator 16.0.0, SVG Export Plug-In . SVG Version: 6.00 Build 0)  -->
<!DOCTYPE svg PUBLIC "-//W3C//DTD SVG 1.1//EN" "http://www.w3.org/Graphics/SVG/1.1/DTD/svg11.dtd">
<svg version="1.1" xmlns="http://www.w3.org/2000/svg" xmlns:xlink="http://www.w3.org/1999/xlink" x="0px" y="0px"
	 width="183.869px" height="178.736px" viewBox="0 0 183.869 178.736" enable-background="new 0 0 183.869 178.736"
	 xml:space="preserve">
<g id="Background" display="none">
	<g display="inline">
		<rect x="-78.722" y="-300.419" fill="#2FBABA" width="800" height="800"/>
	</g>
</g>
<g id="Objects">
	<g>
		<g>
			<g>
				<g>
					<path fill="#E8E8E8" d="M131.54,34.651c0,0,33.338-12.291,47.533-4.581c14.193,7.709-6.681,25.907-16.546,29.649
						c-9.865,3.743-14.873,3.68-14.873,3.68L128.7,46.518L131.54,34.651z"/>
					<path fill="#3D3D3D" d="M183.417,34.611c-0.643-1.723-2.014-3.274-4.345-4.542c-14.194-7.71-48.221,4.801-48.221,4.801
						l-3.001,12.281C127.85,47.151,162.624,28.495,183.417,34.611z"/>
					<path fill="#FFFFFF" d="M136.702,48.787c0,0,29.561-13.464,36.311-10.119c6.749,3.346-13.845,19.138-23.874,20.457
						L136.702,48.787z"/>
				</g>
				<g>
					<path fill="#E8E8E8" d="M52.33,34.651c0,0-33.339-12.291-47.533-4.581c-14.194,7.709,6.68,25.907,16.545,29.649
						c9.866,3.743,14.874,3.68,14.874,3.68L55.17,46.518L52.33,34.651z"/>
					<path fill="#3D3D3D" d="M0.452,34.611c0.643-1.723,2.014-3.274,4.345-4.542c14.193-7.71,47.945,4.619,47.945,4.619
						l3.334,12.462C56.077,47.151,21.246,28.495,0.452,34.611z"/>
					<path fill="#FFFFFF" d="M47.166,48.787c0,0-29.561-13.464-36.311-10.119c-6.748,3.346,13.846,19.138,23.873,20.457
						L47.166,48.787z"/>
				</g>
			</g>
			<g>
				<path fill="#E8E8E8" d="M114.432,30.034c0,0,6.915-11.443,5.095-20.903c0,0-0.728-6.549,4.73-8.004
					c5.458-1.456,12.736,4.206,9.097,19.386c-3.639,15.181-6.656,16.408-6.656,16.408L114.432,30.034z"/>
				<path fill="#E8E8E8" d="M71.434,29.128c0,0-6.915-11.442-5.095-20.903c0,0,0.728-6.549-4.73-8.005s-12.736,4.206-9.097,19.387
					c3.639,15.181,6.656,16.408,6.656,16.408L71.434,29.128z"/>
			</g>
		</g>
		<g>
			<path fill="#E8E8E8" d="M146.231,128.5c5.301-11.317,8.354-24.491,8.354-38.566c0-42.11-27.211-76.249-60.779-76.249
				S33.027,47.824,33.027,89.934c0,14.075,3.052,27.249,8.354,38.566c-4.599,4.822-7.212,10.35-7.212,16.225
				c0,18.783,26.7,34.011,59.637,34.011c32.936,0,59.636-15.228,59.636-34.011C153.443,138.85,150.83,133.323,146.231,128.5z"/>
			<g>
				<path d="M113.417,82.737c0,6.688-1.955,12.107-4.366,12.107c-2.412,0-4.367-5.42-4.367-12.107
					c0-6.683,1.955-12.103,4.367-12.103C111.462,70.634,113.417,76.054,113.417,82.737z"/>
				<path d="M82.061,82.737c0,6.688-1.955,12.107-4.366,12.107c-2.412,0-4.367-5.42-4.367-12.107c0-6.683,1.955-12.103,4.367-12.103
					C80.106,70.634,82.061,76.054,82.061,82.737z"/>
			</g>
			<path fill="#3D3D3D" d="M87.421,14.106c-21.617,2.832-39.853,19.881-48.684,43.558c4.379,4.184,18.791,4.854,26.279-1.129
				c8.119-6.487,25.357-1.518,28.902-9.384C97.458,39.293,87.442,14.16,87.421,14.106z"/>
			<path fill="#3D3D3D" d="M61.484,104.87c0.948-4.728,0.506-13.466-6.314-16.585c-6.788-3.104-21.612-6.815-21.758-6.852
				c-0.247,2.792-0.385,5.626-0.385,8.501c0,14.075,3.052,27.249,8.354,38.566c-1.436,1.505-2.652,3.087-3.682,4.719
				c12.545-4.627,32.833-12.893,29.006-16.715C61.233,111.04,60.535,109.598,61.484,104.87z"/>
			<g>
				<path fill="#EFEFEF" d="M153.665,144.94c0,18.664-26.856,33.796-59.984,33.796c-33.128,0-59.984-15.132-59.984-33.796
					c0-18.662,26.855-33.793,59.984-33.793C126.809,111.147,153.665,126.278,153.665,144.94z"/>
				<ellipse cx="110.191" cy="145.681" rx="4.297" ry="4.394"/>
				<ellipse cx="78.818" cy="145.681" rx="4.297" ry="4.394"/>
			</g>
			<path fill="#3D3D3D" d="M154.585,89.934c0-9.332-1.342-18.27-3.789-26.535c-0.087,0.003-8.393,0-10.465,10.541
				c-1.342,6.825-0.041,15.754-2.294,23.703c-3.704,13.072,6.005,14.844,12.076,20.984
				C152.99,109.769,154.585,100.088,154.585,89.934z"/>
		</g>
	</g>
</g>
</svg>
