<?xml version="1.0" encoding="utf-8"?>
<!-- Generator: Adobe Illustrator 16.0.0, SVG Export Plug-In . SVG Version: 6.00 Build 0)  -->
<!DOCTYPE svg PUBLIC "-//W3C//DTD SVG 1.1//EN" "http://www.w3.org/Graphics/SVG/1.1/DTD/svg11.dtd">
<svg version="1.1" xmlns="http://www.w3.org/2000/svg" xmlns:xlink="http://www.w3.org/1999/xlink" x="0px" y="0px"
	 width="145.142px" height="178.216px" viewBox="0 0 145.142 178.216" enable-background="new 0 0 145.142 178.216"
	 xml:space="preserve">
<g id="Background" display="none">
	<g display="inline">
		<rect x="-563.258" y="-300.679" fill="#2FBABA" width="800" height="800"/>
	</g>
</g>
<g id="Objects">
	<g>
		<path fill="#FFCC57" d="M105.937,38.126c0,0,14.998-16.696,21.182-20.5c6.185-3.804,21.097,0.924,17.46,15.11
			c-3.638,14.186-30.19,19.642-30.19,19.642L105.937,38.126z"/>
		<g>
			<g>
				<g>
					<g>
						<path fill="#FFCC57" d="M40.115,38.126c0,0-14.999-16.696-21.183-20.5c-6.185-3.804-21.097,0.924-17.46,15.11
							c3.638,14.186,30.19,19.642,30.19,19.642L40.115,38.126z"/>
						<path fill="#7E4A23" d="M38.584,39.628c0,0-9.545-10.625-13.48-13.046c-3.936-2.421-13.426,0.588-11.111,9.616
							c2.314,9.027,19.213,12.5,19.213,12.5L38.584,39.628z"/>
					</g>
					<path fill="#7E4A23" d="M107.467,39.628c0,0,9.545-10.625,13.48-13.046c3.936-2.421,13.426,0.588,11.111,9.616
						c-2.314,9.027-19.213,12.5-19.213,12.5L107.467,39.628z"/>
				</g>
				<g>
					<path fill="#7E4A23" d="M99.617,8.184c0-4.52-3.664-8.184-8.185-8.184s-8.184,3.664-8.184,8.184
						c0,3.392,2.063,6.301,5.004,7.543l-5.004,16.02l5.599,3.506l3.001-18.905C96.175,16.129,99.617,12.563,99.617,8.184z"/>
					<path fill="#7E4A23" d="M45.993,8.184c0-4.52,3.663-8.184,8.184-8.184s8.184,3.664,8.184,8.184
						c0,3.392-2.063,6.301-5.004,7.543l5.004,16.02l-5.599,3.506l-3.003-18.905C49.435,16.129,45.993,12.563,45.993,8.184z"/>
				</g>
			</g>
			<g>
				<ellipse fill="#FFCC57" cx="72.77" cy="101.998" rx="60.756" ry="76.219"/>
				<g>
					<g>
						<ellipse cx="101.572" cy="101.026" rx="4.365" ry="5.88"/>
						<ellipse cx="44.039" cy="101.026" rx="4.365" ry="5.88"/>
					</g>
					<g>
						<path fill="#FFF6B5" d="M72.77,178.216c19.773,0,37.335-11.857,48.43-30.206c-8.823-19.539-27.19-32.98-48.43-32.98
							c-21.238,0-39.605,13.441-48.43,32.98C35.435,166.359,52.996,178.216,72.77,178.216z"/>
						<g>
							<g>
								<g>
									<path fill="#C1AA95" d="M72.806,161.694c-12.708,0-14.755-10.92-14.773-11.029l1.396-0.245
										c0.07,0.403,1.885,9.858,13.378,9.858c4.851,0,8.574-1.664,11.07-4.942c1.86-2.445,2.302-4.89,2.306-4.914l1.396,0.243
										C87.559,150.774,85.513,161.694,72.806,161.694z"/>
								</g>
							</g>
							<g>
								<ellipse fill="#7E4A23" cx="81.58" cy="136.822" rx="4.82" ry="2.24"/>
								<ellipse fill="#7E4A23" cx="64.03" cy="136.822" rx="4.819" ry="2.24"/>
							</g>
						</g>
					</g>
				</g>
				<g>
					<defs>
						<ellipse id="SVGID_1_" cx="72.77" cy="101.998" rx="60.756" ry="76.219"/>
					</defs>
					<clipPath id="SVGID_2_">
						<use xlink:href="#SVGID_1_"  overflow="visible"/>
					</clipPath>
					<g clip-path="url(#SVGID_2_)">
						<path fill="#F99C15" d="M91.433,29.447c0,0-1.567,10.927-3.855,17.474c-2.287,6.547,9.851-0.817,17.24-9.684l-8.762-9.594
							L91.433,29.447z"/>
						<path fill="#F99C15" d="M119.941,53.965c0,0-15.91,9.971-18.37,14.558c-2.459,4.586,12.51,5.617,26.485,1.827
							c13.976-3.788-2.518-14.699-2.518-14.699L119.941,53.965z"/>
						<path fill="#F99C15" d="M130.495,78.176c0,0-21.009,4.756-24.559,6.21c-3.551,1.454,12.136,10.4,27.39,11.384
							c15.253,0.982,10.16-13.566,10.16-13.566L130.495,78.176z"/>
						<path fill="#F99C15" d="M52.87,29.447c0,0,1.567,10.927,3.855,17.474c2.288,6.547-9.851-0.817-17.239-9.684l8.762-9.594
							L52.87,29.447z"/>
						<path fill="#F99C15" d="M24.361,53.965c0,0,15.911,9.971,18.37,14.558c2.46,4.586-12.509,5.617-26.484,1.827
							c-13.976-3.788,2.517-14.699,2.517-14.699L24.361,53.965z"/>
						<path fill="#F99C15" d="M13.808,78.176c0,0,21.009,4.756,24.56,6.21s-12.137,10.4-27.39,11.384
							C-4.275,96.752,0.816,82.204,0.816,82.204L13.808,78.176z"/>
					</g>
				</g>
			</g>
		</g>
	</g>
</g>
</svg>
