<?xml version="1.0" encoding="utf-8"?>
<!-- Generator: Adobe Illustrator 16.0.0, SVG Export Plug-In . SVG Version: 6.00 Build 0)  -->
<!DOCTYPE svg PUBLIC "-//W3C//DTD SVG 1.1//EN" "http://www.w3.org/Graphics/SVG/1.1/DTD/svg11.dtd">
<svg version="1.1" xmlns="http://www.w3.org/2000/svg" xmlns:xlink="http://www.w3.org/1999/xlink" x="0px" y="0px"
	 width="224.96px" height="177.29px" viewBox="0 0 224.96 177.29" enable-background="new 0 0 224.96 177.29" xml:space="preserve">
<g id="Background" display="none">
	<g display="inline">
		<rect x="-58.177" y="-76.371" fill="#2FBABA" width="800" height="800"/>
	</g>
</g>
<g id="Objects">
	<g>
		<g>
			<g>
				<g>
					<path fill="#908F93" d="M158.654,26.284c0,0,21.87-27.08,47.899-22.623c26.03,4.457,26.277,105.014-11.056,105.322
						c-37.333,0.312-36.174-12.741-36.174-12.741L158.654,26.284z"/>
					<path fill="#E5C5DD" d="M174.46,41.603c0,0,10.979-13.594,24.045-11.356c13.067,2.237,13.191,52.717-5.55,52.873
						c-18.741,0.156-18.159-6.397-18.159-6.397L174.46,41.603z"/>
				</g>
				<g>
					<path fill="#908F93" d="M66.306,26.284c0,0-21.87-27.08-47.899-22.623C-7.623,8.118-7.871,108.675,29.462,108.983
						c37.333,0.312,36.174-12.741,36.174-12.741L66.306,26.284z"/>
					<path fill="#E5C5DD" d="M50.5,41.603c0,0-10.979-13.594-24.045-11.356c-13.067,2.237-13.191,52.717,5.55,52.873
						c18.741,0.156,18.159-6.397,18.159-6.397L50.5,41.603z"/>
				</g>
			</g>
			<path fill="#908F93" d="M136.952,127.002c56.627-9.287,46.395-64.712,37.017-93.609C163.454,0.993,118.561,0,113.291,0
				S63.128,0.993,52.613,33.393c-9.532,29.37-19.949,86.145,39.846,94.03c2.115,1.643,3.834,3.726,4.414,6.338
				c1.932,8.692,4.346,31.87,29.938,43.459c0,0,15.452,1.932,17.384-14.486c0,0-16.247-9.787-13.349-22.343
				C132.384,133.729,134.283,129.688,136.952,127.002z"/>
		</g>
		<g>
			<g>
				<circle fill="#FFFFFF" cx="87.449" cy="60.741" r="7.101"/>
				<circle cx="87.449" cy="60.741" r="5.018"/>
				<circle fill="#FFFFFF" cx="90.763" cy="58.327" r="2.604"/>
			</g>
			<g>
				<circle fill="#FFFFFF" cx="140.114" cy="60.741" r="7.101"/>
				<circle cx="140.115" cy="60.741" r="5.018"/>
				<circle fill="#FFFFFF" cx="143.428" cy="58.327" r="2.604"/>
			</g>
		</g>
		<g>
			<g>
				<g>
					<path fill="#6B6B6D" d="M101.559,89.377l-0.979-1.306c0.136-0.103,13.701-10.047,26.687,0.008l-0.999,1.29
						C114.278,80.086,102.072,88.993,101.559,89.377z"/>
				</g>
				<g>
					<path fill="#6B6B6D" d="M101.559,98.703l-0.979-1.305c0.136-0.103,13.701-10.047,26.687,0.007l-0.999,1.29
						C114.278,89.412,102.072,98.319,101.559,98.703z"/>
				</g>
				<g>
					<path fill="#6B6B6D" d="M101.559,109.104l-0.979-1.305c0.136-0.103,13.701-10.048,26.687,0.007l-0.999,1.29
						C114.278,99.814,102.072,108.721,101.559,109.104z"/>
				</g>
				<g>
					<path fill="#6B6B6D" d="M101.559,119.927l-0.979-1.305c0.136-0.103,13.701-10.048,26.687,0.007l-0.999,1.29
						C114.278,110.636,102.072,119.543,101.559,119.927z"/>
				</g>
				<g>
					<path fill="#6B6B6D" d="M102.265,133.466l-1.193-1.111c0.115-0.125,11.709-12.311,26.268-4.709l-0.756,1.446
						C113.143,122.074,102.702,132.997,102.265,133.466z"/>
				</g>
				<g>
					<path fill="#6B6B6D" d="M104.208,144.954l-1.251-1.046c0.109-0.131,11.039-12.915,25.981-6.097l-0.678,1.484
						C114.464,133.001,104.619,144.464,104.208,144.954z"/>
				</g>
				<g>
					<path fill="#6B6B6D" d="M109.12,155.518l-1.134-0.876c0.091-0.119,9.253-11.713,22.602-6.234l-0.545,1.325
						C117.719,144.676,109.464,155.074,109.12,155.518z"/>
				</g>
			</g>
			<path fill="#6B6B6D" d="M140.825,163.242c0,0-10.139-1.25-13.485,11.5C127.339,174.742,138.406,175.742,140.825,163.242z"/>
		</g>
	</g>
</g>
</svg>
