<?xml version="1.0" encoding="utf-8"?>
<!-- Generator: Adobe Illustrator 16.0.0, SVG Export Plug-In . SVG Version: 6.00 Build 0)  -->
<!DOCTYPE svg PUBLIC "-//W3C//DTD SVG 1.1//EN" "http://www.w3.org/Graphics/SVG/1.1/DTD/svg11.dtd">
<svg version="1.1" xmlns="http://www.w3.org/2000/svg" xmlns:xlink="http://www.w3.org/1999/xlink" x="0px" y="0px"
	 width="159.981px" height="145.756px" viewBox="0 0 159.981 145.756" enable-background="new 0 0 159.981 145.756"
	 xml:space="preserve">
<g id="Background" display="none">
	<g display="inline">
		<rect x="-321.112" y="-316.909" fill="#2FBABA" width="800" height="800"/>
	</g>
</g>
<g id="Objects">
	<g>
		<path fill="#A2D063" d="M150.438,48.294C127.135,7.141,85.125,5.222,80.23,5.139V5.135c0,0-0.099,0-0.239,0.001
			c-0.144-0.001-0.24-0.001-0.24-0.001v0.004C74.859,5.222,32.847,7.141,9.543,48.294c-24.771,43.745,3.625,82.238,29,90.404
			c23.756,7.646,28.979,7.11,41.447,7.012c12.467,0.099,17.691,0.634,41.448-7.012C146.813,130.532,175.208,92.039,150.438,48.294z"
			/>
		<g>
			<g>
				<g>
					<g>
						<circle fill="#A2D063" cx="128.713" cy="24.356" r="24.356"/>
						<g>
							<circle fill="#FFFFFF" cx="128.714" cy="24.356" r="11.728"/>
							<circle cx="128.715" cy="24.356" r="8.286"/>
							<circle fill="#FFFFFF" cx="134.188" cy="20.37" r="4.3"/>
						</g>
					</g>
					<g>
						<circle fill="#A2D063" cx="29.003" cy="24.356" r="24.356"/>
						<g>
							<circle fill="#FFFFFF" cx="29.003" cy="24.356" r="11.727"/>
							<circle cx="29.004" cy="24.356" r="8.287"/>
							<circle fill="#FFFFFF" cx="34.477" cy="20.37" r="4.3"/>
						</g>
					</g>
				</g>
				<g>
					
						<ellipse transform="matrix(0.9445 -0.3284 0.3284 0.9445 -13.8217 31.7009)" fill="#6FA536" cx="86.948" cy="56.773" rx="3.841" ry="6.594"/>
					
						<ellipse transform="matrix(-0.9446 -0.3283 0.3283 -0.9446 123.3783 134.3766)" fill="#6FA536" cx="73.033" cy="56.773" rx="3.842" ry="6.594"/>
				</g>
			</g>
			<path fill="#6FA536" d="M133.108,94.217l-0.037,2.142c1.976,0.034,3.515,0.395,4.725,0.885
				c-1.938,4.188-12.322,20.204-57.84,20.662c-45.437-0.457-55.865-16.416-57.829-20.639c1.218-0.504,2.776-0.873,4.785-0.908
				l-0.039-2.142c-8.381,0.149-10.541,5.403-10.628,5.626l1.989,0.791c0.038-0.09,0.563-1.282,2.102-2.386
				c2.32,5.063,13.075,20.683,57.624,21.567v0.043c0.675,0,1.335-0.006,1.997-0.013c0.661,0.007,1.321,0.013,1.996,0.013v-0.043
				c44.661-0.888,55.357-16.584,57.641-21.605c1.58,1.113,2.117,2.332,2.154,2.424l1.99-0.791
				C143.649,99.62,141.489,94.366,133.108,94.217z"/>
		</g>
	</g>
</g>
</svg>
