<?xml version="1.0" encoding="utf-8"?>
<!-- Generated by IcoMoon.io -->
<!DOCTYPE svg PUBLIC "-//W3C//DTD SVG 1.1//EN" "http://www.w3.org/Graphics/SVG/1.1/DTD/svg11.dtd">
<svg version="1.1" xmlns="http://www.w3.org/2000/svg" xmlns:xlink="http://www.w3.org/1999/xlink" width="16" height="16" viewBox="0 0 16 16">
<path fill="#383838" d="M3.344 7.344h9.313l-1-3h-7.313zM11.656 10.656q0.406 0 0.703-0.297t0.297-0.703-0.297-0.703-0.703-0.297-0.703 0.297-0.297 0.703 0.297 0.703 0.703 0.297zM4.344 10.656q0.406 0 0.703-0.297t0.297-0.703-0.297-0.703-0.703-0.297-0.703 0.297-0.297 0.703 0.297 0.703 0.703 0.297zM12.625 4l1.375 4v5.344q0 0.281-0.188 0.469t-0.469 0.188h-0.688q-0.281 0-0.469-0.188t-0.188-0.469v-0.688h-8v0.688q0 0.281-0.188 0.469t-0.469 0.188h-0.688q-0.281 0-0.469-0.188t-0.188-0.469v-5.344l1.375-4q0.188-0.656 0.969-0.656h7.313q0.781 0 0.969 0.656z"></path>
</svg>
