<?xml version="1.0" encoding="utf-8"?>
<!-- Generated by IcoMoon.io -->
<!DOCTYPE svg PUBLIC "-//W3C//DTD SVG 1.1//EN" "http://www.w3.org/Graphics/SVG/1.1/DTD/svg11.dtd">
<svg version="1.1" xmlns="http://www.w3.org/2000/svg" xmlns:xlink="http://www.w3.org/1999/xlink" width="16" height="16" viewBox="0 0 16 16">
<path fill="#383838" d="M12 7.344v-3.344h-3.344v3.344h3.344zM11 11.344q0.438 0 0.719-0.297t0.281-0.703-0.281-0.703-0.719-0.297-0.719 0.297-0.281 0.703 0.281 0.703 0.719 0.297zM7.344 7.344v-3.344h-3.344v3.344h3.344zM5 11.344q0.438 0 0.719-0.297t0.281-0.703-0.281-0.703-0.719-0.297-0.719 0.297-0.281 0.703 0.281 0.703 0.719 0.297zM8 1.344q2.594 0 3.969 0.531t1.375 2.125v6.344q0 0.969-0.688 1.641t-1.656 0.672l1 1v0.344h-8v-0.344l1-1q-0.969 0-1.656-0.672t-0.688-1.641v-6.344q0-1.594 1.375-2.125t3.969-0.531z"></path>
</svg>
