<?xml version="1.0" encoding="utf-8"?>
<!-- Generator: Adobe Illustrator 16.0.0, SVG Export Plug-In . SVG Version: 6.00 Build 0)  -->
<!DOCTYPE svg PUBLIC "-//W3C//DTD SVG 1.1//EN" "http://www.w3.org/Graphics/SVG/1.1/DTD/svg11.dtd">
<svg version="1.1" xmlns="http://www.w3.org/2000/svg" xmlns:xlink="http://www.w3.org/1999/xlink" x="0px" y="0px"
	 width="224.96px" height="177.29px" viewBox="0 0 224.96 177.29" enable-background="new 0 0 224.96 177.29" xml:space="preserve">
<g id="Background">
	<g>
		<rect x="-58.177" y="-76.371" fill="#2FBABA" width="800" height="800"/>
		<g>
			<g>
				<path fill="#3F442F" d="M230.315,687.299v-0.256c-0.349,0.398-0.691,0.723-1.03,0.973s-0.706,0.441-1.103,0.57
					c-0.396,0.131-0.827,0.195-1.296,0.195c-0.621,0-1.195-0.131-1.725-0.395c-0.528-0.262-0.985-0.639-1.371-1.125
					c-0.388-0.488-0.68-1.061-0.879-1.719c-0.199-0.66-0.3-1.371-0.3-2.137c0-1.622,0.396-2.887,1.188-3.792
					c0.792-0.904,1.833-1.357,3.125-1.357c0.747,0,1.377,0.129,1.89,0.384c0.514,0.257,1.014,0.652,1.501,1.183v-3.827
					c0-0.532,0.105-0.934,0.318-1.206c0.212-0.272,0.514-0.408,0.907-0.408c0.393,0,0.694,0.125,0.906,0.375
					c0.213,0.251,0.318,0.618,0.318,1.106v11.436c0,0.494-0.113,0.865-0.342,1.111c-0.228,0.246-0.521,0.371-0.883,0.371
					c-0.354,0-0.647-0.129-0.879-0.385C230.431,688.139,230.315,687.773,230.315,687.299z M225.215,683.49
					c0,0.703,0.109,1.301,0.328,1.795s0.518,0.867,0.897,1.115c0.38,0.252,0.795,0.377,1.244,0.377c0.456,0,0.872-0.119,1.249-0.357
					c0.377-0.236,0.678-0.602,0.902-1.09c0.225-0.492,0.337-1.105,0.337-1.84c0-0.689-0.112-1.283-0.337-1.782
					c-0.225-0.496-0.528-0.876-0.912-1.14c-0.383-0.262-0.803-0.393-1.258-0.393c-0.475,0-0.899,0.135-1.273,0.403
					c-0.373,0.269-0.663,0.654-0.868,1.158C225.317,682.242,225.215,682.826,225.215,683.49z"/>
				<path fill="#3F442F" d="M241.749,684.146h-5.071c0.007,0.588,0.125,1.107,0.356,1.557c0.23,0.451,0.538,0.789,0.921,1.018
					c0.384,0.229,0.807,0.34,1.269,0.34c0.31,0,0.593-0.035,0.85-0.107c0.257-0.074,0.505-0.186,0.746-0.342
					c0.241-0.154,0.462-0.322,0.665-0.5c0.202-0.178,0.464-0.418,0.788-0.723c0.133-0.113,0.323-0.17,0.57-0.17
					c0.266,0,0.48,0.074,0.645,0.219c0.165,0.146,0.248,0.352,0.248,0.617c0,0.234-0.093,0.508-0.275,0.822
					c-0.185,0.313-0.462,0.613-0.831,0.902c-0.372,0.287-0.836,0.525-1.397,0.717c-0.56,0.189-1.204,0.285-1.933,0.285
					c-1.664,0-2.96-0.477-3.884-1.426c-0.925-0.949-1.387-2.238-1.387-3.865c0-0.766,0.113-1.478,0.342-2.132
					c0.229-0.656,0.561-1.218,0.997-1.687s0.975-0.827,1.615-1.078c0.639-0.25,1.349-0.374,2.127-0.374
					c1.013,0,1.882,0.212,2.606,0.641c0.726,0.427,1.27,0.979,1.63,1.656c0.359,0.678,0.541,1.369,0.541,2.071
					c0,0.652-0.187,1.074-0.56,1.27C242.954,684.049,242.428,684.146,241.749,684.146z M236.678,682.674h4.702
					c-0.063-0.887-0.304-1.551-0.718-1.99c-0.415-0.44-0.96-0.66-1.638-0.66c-0.646,0-1.177,0.223-1.591,0.669
					C237.019,681.139,236.768,681.8,236.678,682.674z"/>
				<path fill="#3F442F" d="M253.564,685.389c0,0.717-0.174,1.33-0.522,1.84c-0.348,0.51-0.862,0.896-1.544,1.158
					c-0.68,0.264-1.508,0.395-2.483,0.395c-0.931,0-1.729-0.143-2.394-0.428c-0.664-0.285-1.155-0.643-1.472-1.068
					c-0.316-0.428-0.475-0.855-0.475-1.287c0-0.285,0.101-0.529,0.304-0.73c0.202-0.203,0.459-0.305,0.77-0.305
					c0.271,0,0.48,0.066,0.626,0.199c0.146,0.133,0.286,0.32,0.418,0.561c0.266,0.463,0.585,0.807,0.955,1.035
					s0.875,0.342,1.516,0.342c0.519,0,0.944-0.115,1.277-0.346c0.332-0.232,0.498-0.496,0.498-0.795
					c0-0.455-0.172-0.787-0.518-0.996s-0.914-0.408-1.705-0.6c-0.893-0.221-1.619-0.453-2.18-0.697
					c-0.561-0.242-1.009-0.564-1.344-0.963c-0.336-0.4-0.504-0.892-0.504-1.474c0-0.519,0.155-1.01,0.466-1.473
					c0.311-0.461,0.768-0.83,1.373-1.105c0.604-0.276,1.333-0.414,2.188-0.414c0.671,0,1.274,0.069,1.809,0.21
					c0.536,0.138,0.983,0.326,1.34,0.561c0.358,0.233,0.63,0.493,0.816,0.777c0.187,0.285,0.28,0.563,0.28,0.837
					c0,0.297-0.1,0.541-0.299,0.731c-0.199,0.188-0.482,0.285-0.851,0.285c-0.266,0-0.492-0.076-0.679-0.229
					c-0.187-0.151-0.4-0.379-0.641-0.683c-0.196-0.253-0.427-0.456-0.693-0.608c-0.266-0.152-0.627-0.228-1.083-0.228
					c-0.469,0-0.857,0.099-1.168,0.3c-0.311,0.198-0.466,0.446-0.466,0.744c0,0.273,0.114,0.496,0.342,0.67
					c0.229,0.175,0.535,0.319,0.922,0.433s0.917,0.252,1.596,0.418c0.804,0.197,1.46,0.432,1.971,0.703
					c0.509,0.271,0.896,0.594,1.159,0.965C253.434,684.492,253.564,684.914,253.564,685.389z"/>
				<path fill="#3F442F" d="M256.213,677.032c-0.36,0-0.669-0.111-0.926-0.333c-0.256-0.221-0.385-0.534-0.385-0.94
					c0-0.368,0.132-0.669,0.395-0.907s0.568-0.356,0.916-0.356c0.336,0,0.634,0.107,0.893,0.323c0.26,0.216,0.391,0.528,0.391,0.94
					c0,0.399-0.128,0.711-0.381,0.936S256.562,677.032,256.213,677.032z M257.496,679.71v7.493c0,0.52-0.124,0.914-0.371,1.18
					s-0.56,0.398-0.94,0.398c-0.38,0-0.688-0.137-0.926-0.408c-0.238-0.273-0.356-0.662-0.356-1.17v-7.418
					c0-0.512,0.118-0.898,0.356-1.158c0.237-0.26,0.546-0.39,0.926-0.39c0.381,0,0.693,0.13,0.94,0.39
					S257.496,679.248,257.496,679.71z"/>
				<path fill="#3F442F" d="M268.854,680.138v7.532c0,0.861-0.093,1.602-0.276,2.223c-0.183,0.619-0.478,1.133-0.883,1.539
					c-0.405,0.404-0.936,0.705-1.591,0.9c-0.655,0.197-1.471,0.295-2.446,0.295c-0.893,0-1.69-0.125-2.394-0.375
					c-0.702-0.25-1.243-0.572-1.624-0.969c-0.379-0.395-0.57-0.803-0.57-1.221c0-0.316,0.108-0.574,0.324-0.773
					c0.215-0.199,0.475-0.299,0.778-0.299c0.38,0,0.712,0.168,0.997,0.502c0.139,0.172,0.283,0.346,0.432,0.52
					c0.149,0.174,0.314,0.322,0.494,0.447c0.181,0.121,0.397,0.213,0.65,0.273c0.254,0.059,0.546,0.09,0.874,0.09
					c0.672,0,1.192-0.092,1.563-0.279c0.37-0.188,0.63-0.449,0.778-0.785c0.149-0.334,0.236-0.693,0.262-1.076
					c0.025-0.385,0.044-1,0.057-1.85c-0.399,0.559-0.859,0.984-1.383,1.275c-0.521,0.291-1.145,0.436-1.865,0.436
					c-0.868,0-1.626-0.221-2.275-0.664c-0.648-0.443-1.147-1.064-1.495-1.861c-0.349-0.799-0.522-1.719-0.522-2.764
					c0-0.779,0.105-1.483,0.317-2.109c0.213-0.628,0.516-1.156,0.907-1.587c0.393-0.431,0.846-0.755,1.358-0.974
					c0.513-0.218,1.076-0.327,1.69-0.327c0.734,0,1.371,0.142,1.909,0.422c0.538,0.283,1.039,0.725,1.501,1.326v-0.353
					c0-0.449,0.11-0.797,0.332-1.045c0.222-0.246,0.507-0.37,0.855-0.37c0.5,0,0.832,0.164,0.996,0.489
					C268.771,679.053,268.854,679.523,268.854,680.138z M261.342,683.424c0,1.051,0.229,1.846,0.688,2.385s1.054,0.807,1.781,0.807
					c0.431,0,0.837-0.115,1.22-0.346c0.384-0.232,0.695-0.58,0.937-1.045c0.24-0.467,0.361-1.031,0.361-1.695
					c0-1.057-0.232-1.882-0.698-2.47c-0.466-0.589-1.078-0.884-1.839-0.884c-0.741,0-1.334,0.282-1.78,0.846
					C261.564,681.584,261.342,682.387,261.342,683.424z"/>
				<path fill="#3F442F" d="M272.976,679.672v0.313c0.455-0.602,0.954-1.043,1.495-1.325c0.542-0.281,1.163-0.423,1.866-0.423
					c0.685,0,1.295,0.149,1.834,0.447c0.537,0.298,0.94,0.719,1.205,1.262c0.172,0.317,0.282,0.66,0.333,1.026
					c0.051,0.368,0.077,0.836,0.077,1.406v4.824c0,0.52-0.119,0.914-0.357,1.18c-0.237,0.266-0.546,0.398-0.926,0.398
					c-0.387,0-0.699-0.137-0.94-0.408c-0.241-0.273-0.36-0.662-0.36-1.17v-4.32c0-0.855-0.119-1.51-0.356-1.962
					c-0.238-0.452-0.711-0.68-1.421-0.68c-0.461,0-0.883,0.138-1.263,0.413c-0.38,0.276-0.658,0.655-0.836,1.136
					c-0.126,0.388-0.189,1.108-0.189,2.165v3.248c0,0.525-0.123,0.922-0.365,1.184c-0.244,0.264-0.559,0.395-0.945,0.395
					c-0.374,0-0.681-0.137-0.922-0.408c-0.24-0.273-0.36-0.662-0.36-1.17v-7.493c0-0.494,0.107-0.863,0.322-1.107
					c0.216-0.243,0.51-0.365,0.883-0.365c0.229,0,0.435,0.054,0.619,0.162c0.183,0.108,0.33,0.27,0.441,0.483
					C272.92,679.099,272.976,679.362,272.976,679.672z"/>
				<path fill="#3F442F" d="M288.75,684.146h-5.071c0.007,0.588,0.124,1.107,0.356,1.557c0.23,0.451,0.537,0.789,0.921,1.018
					c0.382,0.229,0.806,0.34,1.268,0.34c0.311,0,0.594-0.035,0.851-0.107c0.256-0.074,0.504-0.186,0.746-0.342
					c0.239-0.154,0.461-0.322,0.665-0.5c0.201-0.178,0.464-0.418,0.787-0.723c0.133-0.113,0.323-0.17,0.57-0.17
					c0.266,0,0.481,0.074,0.646,0.219c0.165,0.146,0.247,0.352,0.247,0.617c0,0.234-0.092,0.508-0.275,0.822
					c-0.185,0.313-0.461,0.613-0.832,0.902c-0.37,0.287-0.835,0.525-1.396,0.717c-0.561,0.189-1.205,0.285-1.933,0.285
					c-1.665,0-2.96-0.477-3.886-1.426c-0.923-0.949-1.386-2.238-1.386-3.865c0-0.766,0.114-1.478,0.342-2.132
					c0.228-0.656,0.561-1.218,0.998-1.687c0.437-0.469,0.975-0.827,1.614-1.078c0.639-0.25,1.349-0.374,2.128-0.374
					c1.013,0,1.881,0.212,2.605,0.641c0.726,0.427,1.269,0.979,1.63,1.656c0.36,0.678,0.542,1.369,0.542,2.071
					c0,0.652-0.187,1.074-0.561,1.27C289.954,684.049,289.428,684.146,288.75,684.146z M283.679,682.674h4.701
					c-0.063-0.887-0.303-1.551-0.717-1.99c-0.415-0.44-0.961-0.66-1.639-0.66c-0.646,0-1.177,0.223-1.592,0.669
					S283.768,681.8,283.679,682.674z"/>
				<path fill="#3F442F" d="M299.319,687.299v-0.256c-0.348,0.398-0.691,0.723-1.029,0.973c-0.34,0.25-0.706,0.441-1.102,0.57
					c-0.396,0.131-0.828,0.195-1.297,0.195c-0.621,0-1.195-0.131-1.724-0.395c-0.528-0.262-0.986-0.639-1.372-1.125
					c-0.387-0.488-0.68-1.061-0.879-1.719c-0.2-0.66-0.3-1.371-0.3-2.137c0-1.622,0.396-2.887,1.188-3.792
					c0.792-0.904,1.833-1.357,3.125-1.357c0.747,0,1.378,0.129,1.89,0.384c0.514,0.257,1.014,0.652,1.5,1.183v-3.827
					c0-0.532,0.107-0.934,0.319-1.206s0.515-0.408,0.907-0.408s0.694,0.125,0.906,0.375c0.213,0.251,0.318,0.618,0.318,1.106v11.436
					c0,0.494-0.113,0.865-0.342,1.111c-0.228,0.246-0.521,0.371-0.883,0.371c-0.354,0-0.647-0.129-0.879-0.385
					C299.436,688.139,299.319,687.773,299.319,687.299z M294.22,683.49c0,0.703,0.109,1.301,0.328,1.795
					c0.218,0.494,0.518,0.867,0.898,1.115c0.379,0.252,0.793,0.377,1.242,0.377c0.457,0,0.873-0.119,1.25-0.357
					c0.377-0.236,0.678-0.602,0.902-1.09c0.225-0.492,0.337-1.105,0.337-1.84c0-0.689-0.112-1.283-0.337-1.782
					c-0.225-0.496-0.529-0.876-0.912-1.14c-0.384-0.262-0.803-0.393-1.259-0.393c-0.474,0-0.899,0.135-1.272,0.403
					s-0.663,0.654-0.869,1.158C294.322,682.242,294.22,682.826,294.22,683.49z"/>
				<path fill="#3F442F" d="M309.918,675.863v3.96c0.487-0.506,0.984-0.895,1.491-1.163c0.506-0.269,1.134-0.403,1.881-0.403
					c0.861,0,1.615,0.204,2.266,0.611c0.648,0.41,1.151,1.002,1.51,1.777c0.357,0.774,0.537,1.696,0.537,2.761
					c0,0.785-0.1,1.504-0.299,2.16c-0.2,0.654-0.49,1.223-0.869,1.703c-0.381,0.482-0.842,0.855-1.383,1.117
					c-0.541,0.264-1.139,0.395-1.79,0.395c-0.399,0-0.774-0.047-1.126-0.143s-0.65-0.219-0.897-0.375
					c-0.246-0.154-0.457-0.314-0.632-0.48c-0.174-0.164-0.404-0.412-0.688-0.74v0.256c0,0.488-0.117,0.857-0.352,1.107
					c-0.233,0.25-0.531,0.375-0.893,0.375c-0.367,0-0.66-0.125-0.878-0.375c-0.219-0.25-0.328-0.619-0.328-1.107v-11.322
					c0-0.525,0.105-0.923,0.317-1.191s0.509-0.403,0.889-0.403c0.399,0,0.706,0.128,0.921,0.384
					C309.81,675.023,309.918,675.388,309.918,675.863z M310.042,683.566c0,1.033,0.235,1.824,0.707,2.379s1.091,0.832,1.857,0.832
					c0.651,0,1.214-0.283,1.686-0.85c0.471-0.568,0.707-1.379,0.707-2.438c0-0.684-0.098-1.273-0.294-1.767
					c-0.196-0.494-0.475-0.876-0.835-1.145c-0.361-0.269-0.783-0.403-1.264-0.403c-0.494,0-0.936,0.135-1.32,0.403
					c-0.387,0.269-0.69,0.658-0.912,1.168C310.152,682.256,310.042,682.863,310.042,683.566z"/>
				<path fill="#3F442F" d="M320.964,689.104l0.237-0.58l-3.191-8.035c-0.196-0.461-0.295-0.798-0.295-1.007
					c0-0.222,0.058-0.427,0.171-0.616c0.115-0.19,0.271-0.343,0.471-0.456c0.199-0.115,0.406-0.172,0.622-0.172
					c0.373,0,0.655,0.119,0.846,0.356s0.357,0.577,0.503,1.021l2.194,6.384l2.08-5.938c0.164-0.479,0.313-0.857,0.446-1.13
					s0.273-0.456,0.422-0.55c0.148-0.096,0.359-0.144,0.633-0.144c0.197,0,0.385,0.052,0.564,0.157
					c0.181,0.104,0.32,0.245,0.418,0.423c0.098,0.177,0.148,0.363,0.148,0.56c-0.027,0.12-0.066,0.291-0.125,0.514
					c-0.057,0.221-0.126,0.447-0.208,0.674l-3.382,8.854c-0.291,0.777-0.576,1.389-0.855,1.832
					c-0.278,0.443-0.646,0.785-1.105,1.021c-0.46,0.238-1.078,0.355-1.857,0.355c-0.76,0-1.33-0.082-1.709-0.246
					c-0.381-0.166-0.57-0.467-0.57-0.902c0-0.297,0.09-0.527,0.271-0.689c0.18-0.16,0.447-0.242,0.801-0.242
					c0.141,0,0.277,0.02,0.41,0.059c0.164,0.037,0.307,0.057,0.426,0.057c0.298,0,0.533-0.045,0.704-0.135
					c0.171-0.088,0.323-0.24,0.46-0.461C320.63,689.85,320.786,689.527,320.964,689.104z"/>
			</g>
			<g>
				<path fill="#3F442F" d="M358.526,678.462h0.619v-0.778c0-0.814,0.1-1.457,0.307-1.938c0.203-0.479,0.555-0.826,1.047-1.045
					c0.49-0.217,1.162-0.326,2.016-0.326c1.52,0,2.273,0.367,2.273,1.114c0,0.238-0.08,0.444-0.24,0.615
					c-0.154,0.169-0.344,0.256-0.559,0.256c-0.1,0-0.277-0.019-0.527-0.06c-0.236-0.033-0.451-0.056-0.623-0.056
					c-0.467,0-0.766,0.141-0.904,0.415c-0.127,0.275-0.195,0.669-0.195,1.185v0.617h0.633c0.99,0,1.48,0.297,1.48,0.896
					c0,0.419-0.127,0.69-0.393,0.805c-0.262,0.114-0.623,0.171-1.088,0.171h-0.633v6.872c0,0.51-0.121,0.9-0.369,1.168
					c-0.242,0.271-0.555,0.406-0.943,0.406c-0.367,0-0.67-0.135-0.918-0.406c-0.244-0.268-0.363-0.658-0.363-1.168v-6.872h-0.715
					c-0.389,0-0.682-0.084-0.893-0.262c-0.209-0.171-0.314-0.399-0.314-0.678C357.224,678.77,357.657,678.462,358.526,678.462"/>
				<path fill="#3F442F" d="M367.017,685.037v2.168c0,0.523-0.133,0.918-0.375,1.18c-0.246,0.266-0.559,0.395-0.938,0.395
					c-0.381,0-0.688-0.131-0.926-0.4c-0.236-0.264-0.361-0.656-0.361-1.174v-7.224c0-1.166,0.42-1.749,1.262-1.749
					c0.434,0,0.742,0.135,0.934,0.408c0.189,0.273,0.295,0.674,0.316,1.208c0.309-0.534,0.625-0.935,0.949-1.208
					c0.332-0.273,0.762-0.408,1.309-0.408c0.549,0,1.072,0.135,1.586,0.408c0.516,0.273,0.771,0.637,0.771,1.085
					c0,0.314-0.111,0.58-0.326,0.781c-0.221,0.209-0.455,0.312-0.707,0.312c-0.1,0-0.33-0.063-0.691-0.18
					c-0.365-0.113-0.689-0.173-0.963-0.173c-0.381,0-0.693,0.103-0.932,0.298c-0.242,0.205-0.432,0.497-0.564,0.887
					c-0.129,0.395-0.219,0.865-0.273,1.404C367.038,683.598,367.017,684.258,367.017,685.037"/>
				<path fill="#3F442F" d="M378.937,684.145h-5.074c0.01,0.588,0.125,1.109,0.355,1.559c0.234,0.445,0.539,0.785,0.924,1.016
					c0.385,0.229,0.805,0.34,1.27,0.34c0.311,0,0.592-0.033,0.85-0.111c0.254-0.068,0.504-0.186,0.744-0.34
					c0.242-0.152,0.461-0.318,0.664-0.5c0.203-0.176,0.467-0.416,0.791-0.719c0.135-0.113,0.324-0.174,0.568-0.174
					c0.268,0,0.48,0.074,0.648,0.221c0.166,0.148,0.244,0.352,0.244,0.617c0,0.236-0.09,0.508-0.268,0.82
					c-0.188,0.316-0.463,0.615-0.836,0.906c-0.375,0.285-0.84,0.527-1.398,0.713c-0.559,0.191-1.205,0.287-1.932,0.287
					c-1.67,0-2.963-0.473-3.887-1.422c-0.924-0.953-1.391-2.242-1.391-3.869c0-0.766,0.117-1.479,0.348-2.135
					c0.225-0.658,0.557-1.216,0.998-1.688c0.436-0.471,0.971-0.828,1.613-1.078c0.637-0.249,1.346-0.374,2.127-0.374
					c1.012,0,1.881,0.214,2.607,0.646c0.723,0.423,1.273,0.977,1.629,1.654c0.361,0.681,0.541,1.368,0.541,2.074
					c0,0.648-0.188,1.07-0.561,1.266C380.14,684.047,379.614,684.145,378.937,684.145 M373.862,682.67h4.701
					c-0.063-0.886-0.297-1.551-0.713-1.987c-0.418-0.442-0.959-0.66-1.641-0.66c-0.646,0-1.178,0.22-1.592,0.669
					C374.204,681.138,373.95,681.796,373.862,682.67"/>
				<path fill="#3F442F" d="M389.724,684.145h-5.072c0.006,0.588,0.125,1.109,0.354,1.559c0.232,0.445,0.539,0.785,0.922,1.016
					c0.383,0.229,0.805,0.34,1.271,0.34c0.307,0,0.592-0.033,0.844-0.111c0.26-0.068,0.506-0.186,0.75-0.34
					c0.242-0.152,0.461-0.318,0.664-0.5c0.199-0.176,0.465-0.416,0.789-0.719c0.135-0.113,0.326-0.174,0.568-0.174
					c0.268,0,0.482,0.074,0.65,0.221c0.164,0.148,0.24,0.352,0.24,0.617c0,0.236-0.088,0.508-0.273,0.82
					c-0.178,0.316-0.455,0.615-0.83,0.906c-0.371,0.285-0.84,0.527-1.396,0.713c-0.557,0.191-1.207,0.287-1.934,0.287
					c-1.668,0-2.959-0.473-3.887-1.422c-0.924-0.953-1.389-2.242-1.389-3.869c0-0.766,0.115-1.479,0.348-2.135
					c0.227-0.658,0.559-1.216,0.996-1.688c0.436-0.471,0.973-0.828,1.613-1.078c0.639-0.249,1.352-0.374,2.129-0.374
					c1.01,0,1.879,0.214,2.613,0.646c0.721,0.423,1.266,0.977,1.621,1.654c0.359,0.681,0.545,1.368,0.545,2.074
					c0,0.648-0.191,1.07-0.561,1.266C390.925,684.047,390.399,684.145,389.724,684.145 M384.651,682.67h4.701
					c-0.064-0.886-0.305-1.551-0.715-1.987c-0.422-0.442-0.963-0.66-1.643-0.66c-0.646,0-1.176,0.22-1.594,0.669
					C384.989,681.138,384.735,681.796,384.651,682.67"/>
				<path fill="#3F442F" d="M395.403,679.691v0.311c0.486-0.601,0.994-1.042,1.525-1.324c0.518-0.284,1.117-0.427,1.781-0.427
					c0.795,0,1.535,0.208,2.207,0.617c0.672,0.414,1.199,1.016,1.59,1.807c0.389,0.795,0.586,1.729,0.586,2.813
					c0,0.797-0.113,1.531-0.336,2.201c-0.225,0.668-0.537,1.227-0.93,1.68c-0.393,0.451-0.855,0.803-1.389,1.047
					c-0.543,0.24-1.111,0.363-1.729,0.363c-0.738,0-1.363-0.148-1.865-0.447c-0.502-0.293-0.982-0.734-1.441-1.307v3.893
					c0,1.137-0.416,1.711-1.244,1.711c-0.49,0-0.809-0.146-0.971-0.439c-0.152-0.299-0.234-0.725-0.234-1.291v-11.194
					c0-0.495,0.107-0.859,0.32-1.107c0.215-0.239,0.512-0.364,0.885-0.364c0.369,0,0.666,0.125,0.896,0.374
					C395.29,678.86,395.403,679.217,395.403,679.691 M400.487,683.459c0-0.684-0.105-1.273-0.314-1.763
					c-0.209-0.492-0.498-0.867-0.865-1.128c-0.367-0.263-0.783-0.396-1.232-0.396c-0.715,0-1.318,0.284-1.809,0.844
					c-0.492,0.566-0.74,1.396-0.74,2.494c0,1.025,0.244,1.832,0.736,2.406c0.486,0.572,1.086,0.857,1.813,0.857
					c0.428,0,0.83-0.125,1.197-0.371c0.371-0.254,0.664-0.627,0.883-1.127C400.376,684.773,400.487,684.168,400.487,683.459"/>
				<path fill="#3F442F" d="M405.704,677.025c-0.363,0-0.67-0.114-0.924-0.335c-0.26-0.223-0.387-0.532-0.387-0.937
					c0-0.368,0.131-0.67,0.396-0.91c0.262-0.234,0.566-0.355,0.914-0.355c0.34,0,0.635,0.106,0.893,0.319
					c0.26,0.219,0.391,0.534,0.391,0.946c0,0.399-0.127,0.711-0.377,0.936C406.356,676.911,406.056,677.025,405.704,677.025
					 M406.987,679.704v7.503c0,0.516-0.123,0.908-0.369,1.172c-0.25,0.27-0.561,0.4-0.941,0.4s-0.686-0.135-0.928-0.406
					c-0.234-0.277-0.355-0.666-0.355-1.166v-7.429c0-0.51,0.121-0.895,0.355-1.154c0.242-0.265,0.547-0.392,0.928-0.392
					s0.691,0.127,0.941,0.392C406.864,678.884,406.987,679.246,406.987,679.704"/>
				<path fill="#3F442F" d="M415.347,687.596l-2.283-3.766l-1.408,1.328v2.064c0,0.5-0.133,0.883-0.396,1.15
					c-0.258,0.271-0.566,0.406-0.906,0.406c-0.398,0-0.715-0.131-0.941-0.4c-0.227-0.264-0.344-0.656-0.344-1.174v-11.064
					c0-0.573,0.115-1.011,0.332-1.313c0.223-0.305,0.545-0.452,0.953-0.452c0.398,0,0.713,0.137,0.949,0.411
					c0.234,0.271,0.354,0.674,0.354,1.202v6.293l2.916-3.063c0.361-0.376,0.633-0.641,0.826-0.778
					c0.189-0.139,0.42-0.208,0.689-0.208c0.326,0,0.594,0.104,0.816,0.309c0.211,0.206,0.32,0.466,0.32,0.773
					c0,0.379-0.354,0.889-1.055,1.521l-1.377,1.264l2.658,4.182c0.193,0.314,0.34,0.545,0.424,0.707
					c0.084,0.158,0.131,0.318,0.131,0.461c0,0.414-0.115,0.734-0.342,0.977c-0.225,0.236-0.523,0.354-0.885,0.354
					c-0.316,0-0.564-0.082-0.734-0.256S415.638,688.039,415.347,687.596"/>
				<path fill="#3F442F" d="M420.983,688.779c-0.393,0-0.729-0.127-1.014-0.381c-0.285-0.25-0.43-0.605-0.43-1.064
					c0-0.387,0.139-0.719,0.41-0.996c0.275-0.279,0.607-0.418,1.008-0.418c0.398,0,0.736,0.139,1.023,0.412
					c0.279,0.275,0.422,0.611,0.422,1.002c0,0.451-0.143,0.807-0.422,1.059C421.694,688.652,421.362,688.779,420.983,688.779"/>
				<path fill="#3F442F" d="M433.882,685.568c0,0.32-0.098,0.668-0.291,1.035c-0.191,0.369-0.488,0.717-0.887,1.049
					c-0.395,0.332-0.891,0.604-1.494,0.805c-0.602,0.201-1.281,0.307-2.031,0.307c-1.605,0-2.857-0.471-3.758-1.402
					c-0.895-0.936-1.346-2.189-1.346-3.76c0-1.066,0.205-2.006,0.619-2.824c0.408-0.814,1.004-1.447,1.781-1.894
					c0.779-0.448,1.717-0.67,2.795-0.67c0.674,0,1.287,0.098,1.852,0.295c0.561,0.195,1.033,0.451,1.426,0.759
					c0.387,0.314,0.686,0.644,0.889,0.992c0.207,0.352,0.309,0.681,0.309,0.987c0,0.308-0.113,0.571-0.344,0.787
					c-0.234,0.216-0.516,0.325-0.838,0.325c-0.219,0-0.398-0.057-0.541-0.166c-0.145-0.113-0.305-0.291-0.479-0.543
					c-0.318-0.479-0.646-0.842-0.996-1.079c-0.344-0.243-0.781-0.362-1.314-0.362c-0.762,0-1.383,0.298-1.854,0.897
					c-0.467,0.596-0.703,1.421-0.703,2.454c0,0.488,0.063,0.939,0.184,1.348c0.117,0.408,0.291,0.756,0.52,1.045
					c0.23,0.287,0.504,0.504,0.826,0.654c0.324,0.152,0.682,0.225,1.064,0.225c0.521,0,0.967-0.119,1.336-0.359
					c0.377-0.242,0.703-0.607,0.986-1.104c0.158-0.291,0.328-0.518,0.51-0.684c0.182-0.162,0.408-0.248,0.676-0.248
					c0.316,0,0.58,0.123,0.785,0.361C433.774,685.039,433.882,685.299,433.882,685.568"/>
				<path fill="#3F442F" d="M445.071,683.508c0,0.77-0.121,1.484-0.355,2.139c-0.246,0.652-0.592,1.213-1.049,1.68
					c-0.455,0.469-1.002,0.828-1.633,1.08c-0.639,0.246-1.35,0.375-2.139,0.375c-0.785,0-1.492-0.129-2.121-0.383
					c-0.623-0.25-1.17-0.615-1.625-1.082c-0.461-0.477-0.809-1.035-1.053-1.678c-0.229-0.643-0.35-1.354-0.35-2.131
					c0-0.785,0.123-1.506,0.357-2.158c0.242-0.654,0.59-1.212,1.039-1.673c0.451-0.462,0.994-0.817,1.631-1.07
					c0.645-0.249,1.35-0.374,2.121-0.374c0.785,0,1.498,0.125,2.139,0.382c0.639,0.251,1.184,0.614,1.645,1.079
					c0.457,0.475,0.803,1.029,1.039,1.672C444.952,682.017,445.071,682.727,445.071,683.508 M442.468,683.508
					c0-1.059-0.234-1.881-0.697-2.469c-0.463-0.596-1.09-0.888-1.875-0.888c-0.508,0-0.955,0.132-1.342,0.394
					s-0.682,0.649-0.891,1.164c-0.209,0.514-0.314,1.113-0.314,1.799c0,0.68,0.102,1.268,0.309,1.773
					c0.209,0.512,0.502,0.898,0.887,1.166s0.834,0.404,1.352,0.404c0.785,0,1.412-0.295,1.875-0.891
					C442.233,685.369,442.468,684.549,442.468,683.508"/>
				<path fill="#3F442F" d="M454.964,683.699v3.445c0,0.547-0.121,0.951-0.369,1.229c-0.25,0.271-0.572,0.408-0.979,0.408
					c-0.393,0-0.713-0.137-0.951-0.408c-0.246-0.277-0.371-0.682-0.371-1.229v-4.131c0-0.652-0.021-1.162-0.064-1.524
					c-0.045-0.354-0.168-0.655-0.361-0.883c-0.197-0.235-0.51-0.352-0.932-0.352c-0.85,0-1.406,0.29-1.676,0.881
					c-0.268,0.576-0.406,1.413-0.406,2.507v3.502c0,0.539-0.123,0.947-0.361,1.225c-0.25,0.273-0.568,0.412-0.965,0.412
					s-0.717-0.139-0.967-0.412c-0.252-0.277-0.377-0.686-0.377-1.225v-7.419c0-0.489,0.111-0.86,0.336-1.111
					c0.229-0.257,0.525-0.382,0.889-0.382c0.357,0,0.652,0.123,0.893,0.355c0.236,0.238,0.354,0.566,0.354,0.984v0.245
					c0.453-0.535,0.936-0.932,1.445-1.181c0.516-0.26,1.082-0.386,1.713-0.386c0.65,0,1.211,0.131,1.678,0.39
					c0.469,0.261,0.854,0.655,1.16,1.177c0.439-0.528,0.908-0.923,1.41-1.181c0.5-0.257,1.053-0.386,1.662-0.386
					c0.705,0,1.32,0.143,1.834,0.419c0.51,0.278,0.893,0.68,1.146,1.195c0.221,0.473,0.33,1.21,0.33,2.217v5.063
					c0,0.547-0.121,0.951-0.367,1.229c-0.246,0.271-0.574,0.408-0.979,0.408c-0.395,0-0.715-0.139-0.965-0.412
					c-0.25-0.277-0.377-0.686-0.377-1.225v-4.361c0-0.559-0.023-1.003-0.068-1.338c-0.047-0.337-0.178-0.62-0.383-0.847
					c-0.213-0.228-0.531-0.344-0.953-0.344c-0.342,0-0.666,0.106-0.975,0.308c-0.307,0.198-0.547,0.477-0.721,0.813
					C455.062,681.813,454.964,682.588,454.964,683.699"/>
			</g>
			<g>
				<path fill="#3F442F" d="M334.259,682.881c-0.002-0.006-0.002-0.01-0.002-0.018C334.257,682.871,334.257,682.875,334.259,682.881
					z"/>
				<path fill="#3F442F" d="M334.39,683.709c0.002,0,0.002,0,0.003,0c-0.05-0.236-0.089-0.471-0.118-0.701
					C334.304,683.24,334.343,683.477,334.39,683.709z"/>
				<path fill="#3F442F" d="M335.248,686.115c-0.006-0.01-0.011-0.021-0.017-0.033C335.237,686.094,335.242,686.105,335.248,686.115
					z"/>
				<path fill="#3F442F" d="M335.166,685.955c-0.022-0.043-0.044-0.09-0.065-0.133C335.122,685.869,335.144,685.912,335.166,685.955
					z"/>
				<path fill="#3F442F" d="M334.631,684.637c0.127,0.4,0.28,0.787,0.457,1.158c-0.181-0.379-0.33-0.768-0.454-1.158
					C334.634,684.637,334.632,684.637,334.631,684.637z"/>
				<path fill="#3F442F" d="M344.296,672.943c0.502,0,0.871,0.04,1.295,0.111l0.121-0.763c0,0-1.172-0.36-2.711-0.234l-0.121-0.415
					c0.479-0.101,0.838-0.526,0.838-1.034c0-0.582-0.475-1.054-1.057-1.054c-0.584,0-1.057,0.472-1.057,1.054
					c0,0.508,0.359,0.934,0.836,1.034l0.135,0.463c-1.635,0.225-2.936,0.862-2.936,0.862l0.23,0.705
					c0.988-0.329,1.846-0.529,2.624-0.613C343.256,672.979,343.829,672.943,344.296,672.943z"/>
				<path fill="#3F442F" d="M335.229,676.802l0.006-0.008c0.038-0.05,0.075-0.097,0.113-0.143l-0.313-0.226l-0.487-0.356
					c-0.027,0.038-0.795,0.744-1.401,2.048c-0.025-0.041-0.056-0.081-0.09-0.119c-0.182-0.198-0.436-0.3-0.758-0.294
					c-0.004,0-0.01,0-0.016,0c-0.199,0-0.336-0.066-0.426-0.147c0.089-0.113,0.143-0.256,0.143-0.413c0-0.368-0.3-0.669-0.67-0.669
					c-0.368,0-0.668,0.301-0.668,0.669c0,0.37,0.3,0.669,0.668,0.669c0.059,0,0.113-0.01,0.168-0.021
					c0.164,0.183,0.425,0.342,0.807,0.334c0.197-0.002,0.342,0.049,0.438,0.155c0.111,0.121,0.148,0.296,0.16,0.428
					c-0.001,0.002-0.001,0.005-0.003,0.005c-0.436,1.189-0.312,2.67-0.312,2.67l1.058,0.042c0.021-0.539,0.099-1.482,0.372-2.23
					C334.542,677.746,335.202,676.84,335.229,676.802z"/>
				<path fill="#3F442F" d="M353.495,673.827c-0.367,0-0.668,0.299-0.668,0.669c0,0.058,0.008,0.112,0.023,0.165
					c-0.184,0.166-0.344,0.428-0.338,0.811c0.004,0.197-0.047,0.34-0.154,0.437c-0.084,0.075-0.191,0.115-0.295,0.141
					c-0.787-1.103-1.756-1.775-1.756-1.775l-0.76,0.813c0.574,0.521,1.16,1.175,1.729,1.99c0.395,0.563,0.799,1.29,1.137,2.015
					l1.023-0.486c0,0-0.467-1.155-1.125-2.191c0.113-0.04,0.229-0.103,0.33-0.192c0.201-0.181,0.299-0.437,0.293-0.758
					c-0.002-0.208,0.066-0.349,0.148-0.441c0.115,0.087,0.258,0.143,0.412,0.143c0.371,0,0.67-0.3,0.67-0.669
					C354.165,674.126,353.866,673.827,353.495,673.827z"/>
				<path fill="#3F442F" d="M350.839,683.029c-1.41,0.688-3.729,1.594-6.781,2.02c-1.199,0.166-2.359,0.229-3.429,0.229
					c-1.391,0-2.62-0.104-3.563-0.223c-1.076-0.137-1.917-0.303-2.433-0.418c0.124,0.391,0.273,0.779,0.454,1.158
					c0.003,0.01,0.008,0.02,0.013,0.027c0.021,0.043,0.043,0.09,0.065,0.133c0.021,0.045,0.043,0.088,0.065,0.127
					c0.006,0.012,0.011,0.023,0.017,0.033c0.303,0.57,0.667,1.096,1.081,1.549c1.439,1.576,2.906,1.824,2.92,1.826l0.023,0.004
					l0.021,0.008c0.014,0.004,1.314,0.424,3.291,0.424c1.945,0,3.855-0.393,5.674-1.166c1.348-0.689,2.623-1.736,3.254-2.67
					c0.488-0.723,0.842-1.494,1.051-2.295c0.111-0.426,0.199-1.107,0.146-1.825C352.313,682.236,351.687,682.617,350.839,683.029z"
					/>
				<path fill="#3F442F" d="M335.681,677.136c-0.041,0.06-0.652,0.925-1.135,2.253c-0.361,0.995-0.346,2.443-0.346,2.46v0.003
					c0,0.34,0.02,0.678,0.057,1.012c0,0.008,0,0.012,0.002,0.018c0.004,0.043,0.012,0.084,0.016,0.127
					c0.029,0.23,0.068,0.465,0.118,0.701c0.7,0.178,4.878,1.152,9.548,0.502c2.928-0.406,5.15-1.271,6.5-1.926
					c1.121-0.545,1.842-1.037,2.119-1.239c-0.277-1.028-1.041-2.641-1.742-3.646c-2.006-2.865-4.168-3.601-5.277-3.783
					c-0.424-0.069-0.764-0.109-1.244-0.109c-0.447,0-1.002,0.036-1.742,0.114c-0.744,0.077-1.572,0.272-2.533,0.596
					c-1.348,0.451-2.566,1.159-3.526,2.048l-0.032,0.03C336.319,676.426,336.022,676.701,335.681,677.136z M347.95,676.469
					c0.961,0,1.744,0.781,1.744,1.743s-0.783,1.744-1.744,1.744s-1.742-0.782-1.742-1.744S346.989,676.469,347.95,676.469z
					 M339.709,676.399c1.557,0,2.817,1.262,2.817,2.817s-1.261,2.814-2.817,2.814c-1.555,0-2.815-1.259-2.815-2.814
					S338.154,676.399,339.709,676.399z"/>
			</g>
		</g>
	</g>
</g>
<g id="Objects">
	<g>
		<g>
			<g>
				<g>
					<path fill="#EFE9E9" d="M673.471,498.087c0,0-21.789-2.452-30.547,6.801l-8.359-9.422l5.49-9.004h13.963L673.471,498.087z"/>
					<path fill="#FBC8D1" d="M613.844,480.118c0,0,29.18-10.067,34.716-10.165c5.536-0.099,24.911,28.134,24.911,28.134
						s-17.161-11.071-38.906-2.621L613.844,480.118z"/>
				</g>
				<g>
					<path fill="#EFE9E9" d="M482.742,498.087c0,0,21.789-2.452,30.547,6.801l8.359-9.422l-5.49-9.004h-13.963L482.742,498.087z"/>
					<path fill="#FBC8D1" d="M542.369,480.118c0,0-29.18-10.067-34.716-10.165c-5.536-0.099-24.911,28.134-24.911,28.134
						s17.161-11.071,38.906-2.621L542.369,480.118z"/>
				</g>
			</g>
			<path fill="#FBD4D9" d="M642.924,504.888c-27.54-35.394-65.059-34.935-65.059-34.935s-37.516-0.459-65.059,34.935
				c-27.545,35.396-18.521,69.873-6.174,83.661c12.348,13.792,29.917,20.687,71.232,20.687s58.886-6.895,71.232-20.687
				C661.446,574.761,670.467,540.283,642.924,504.888z"/>
		</g>
		<g>
			<g>
				<g>
					<circle fill="#FFFFFF" cx="542.369" cy="528.697" r="9.636"/>
					<circle cx="542.369" cy="528.697" r="6.81"/>
					<circle fill="#FFFFFF" cx="546.866" cy="525.421" r="3.533"/>
				</g>
				<g>
					<circle fill="#FFFFFF" cx="613.843" cy="528.697" r="9.636"/>
					<circle cx="613.844" cy="528.697" r="6.81"/>
					<circle fill="#FFFFFF" cx="618.341" cy="525.421" r="3.533"/>
				</g>
			</g>
			<g>
				<ellipse fill="#F9B9C7" cx="577.439" cy="568.783" rx="39.592" ry="32.71"/>
				<g>
					<path fill="#DD8CA5" d="M572.638,568.782c0,6.715-4.089,12.16-9.134,12.16c-5.044,0-9.137-5.445-9.137-12.16
						c0-6.713,4.093-12.156,9.137-12.156C568.549,556.626,572.638,562.069,572.638,568.782z"/>
					<path fill="#DD8CA5" d="M600.513,568.782c0,6.715-4.091,12.16-9.135,12.16c-5.048,0-9.138-5.445-9.138-12.16
						c0-6.713,4.09-12.156,9.138-12.156C596.422,556.626,600.513,562.069,600.513,568.782z"/>
				</g>
			</g>
		</g>
	</g>
	<g>
		<g>
			<circle cx="406.739" cy="488.971" r="27.786"/>
			<circle cx="279.113" cy="488.971" r="27.786"/>
			<ellipse fill="#E8E8E8" cx="343.065" cy="539.874" rx="84.051" ry="76.129"/>
		</g>
		<g>
			<g>
				<g>
					<path fill="#444343" d="M357.619,522.916c-2.711,3.498-2.676,12.433,1.411,15.957c9.41,8.113,9.784,12.485,15.903,18.002
						c10.033,9.046,23.949-4.874,17.621-20.347C386.226,521.057,366.893,510.95,357.619,522.916z"/>
					<g>
						<circle cx="376.714" cy="539.069" r="5.598"/>
					</g>
				</g>
				<g>
					<path fill="#444343" d="M326.223,522.916c2.71,3.498,2.675,12.433-1.413,15.957c-9.41,8.113-9.783,12.485-15.903,18.002
						c-10.033,9.046-23.949-4.874-17.621-20.347C297.617,521.057,316.949,510.95,326.223,522.916z"/>
					<g>
						<circle cx="307.127" cy="539.069" r="5.598"/>
					</g>
				</g>
			</g>
			<ellipse cx="343.065" cy="564.645" rx="21.511" ry="13.574"/>
			<g>
				<g>
					<path d="M343.066,594.68c-20.095,0-23.33-17.267-23.361-17.44l2.206-0.386c0.113,0.636,2.98,15.587,21.155,15.587
						c7.67,0,13.56-2.629,17.505-7.814c2.941-3.866,3.641-7.73,3.647-7.771l2.207,0.385
						C366.394,577.413,363.16,594.68,343.066,594.68z"/>
				</g>
			</g>
		</g>
	</g>
	<g>
		<path fill="#F4F1ED" d="M39.938,531.891c0,0-15.739,17.282,2.755,28.417c0,0-15.598,25.687,11.64,32.468
			c0,0,2.6,18.508,27.571,13.35l4.282-37.978l-22.653-41.741L39.938,531.891z"/>
		<path fill="#F4F1ED" d="M182.911,532.232c0,0,17.996,15.887-0.5,27.021c0,0,15.598,25.686-11.639,32.467
			c0,0-0.491,19.563-25.462,14.404l-4.283-37.978l22.654-41.741L182.911,532.232z"/>
		<g>
			<path fill="#EFE2D5" d="M166.457,494.697c0,0,33.294,8.323,40.429,22.196c7.135,13.873-19.422,17.044-29.331,14.666
				c-9.91-2.379-13.873-5.153-13.873-5.153l-5.946-23.782L166.457,494.697z"/>
			<path fill="#DDC8B6" d="M207.883,522.882c0.425-1.726,0.174-3.708-0.998-5.988c-7.135-13.873-40.429-22.196-40.429-22.196
				l-8.721,7.927C157.735,502.624,194.613,506.689,207.883,522.882z"/>
			<path fill="#F9B9C7" d="M162.888,508.788c0,0,30.917,5.331,34.485,11.673c3.566,6.341-21.46,7.744-30.182,3.343L162.888,508.788z
				"/>
		</g>
		<g>
			<path fill="#EFE2D5" d="M58.504,494.697c0,0-33.295,8.323-40.43,22.196c-7.135,13.873,19.423,17.044,29.332,14.666
				c9.91-2.379,13.873-5.153,13.873-5.153l5.946-23.782L58.504,494.697z"/>
			<path fill="#DDC8B6" d="M17.076,522.882c-0.423-1.726-0.174-3.708,0.998-5.988c7.135-13.873,40.43-22.196,40.43-22.196
				l8.721,7.927C67.225,502.624,30.346,506.689,17.076,522.882z"/>
			<path fill="#F9B9C7" d="M62.071,508.788c0,0-30.917,5.331-34.484,11.673c-3.567,6.341,21.46,7.744,30.18,3.343L62.071,508.788z"
				/>
		</g>
		<g>
			<ellipse fill="#EFE2D5" cx="112.794" cy="544.807" rx="58.703" ry="73.644"/>
			<path fill="#F4F1ED" d="M65.465,509.66c0,0,12.571,4.985,20.015-8.369c0,0,12.741,16.869,27.314,0c0,0,6.313,22.257,25.818,7.497
				c0,0,20.991,16.108,26.531-5.02l10.701-6.234c0,0,1.419-19.818-18.108-21.947c0,0,3.699-10.995-7.532-15.9
				c-11.327-4.948-18.353,7.336-18.353,7.336s-2.708-12.96-13.437-12.258c-10.729,0.704-12.134,12.258-12.134,12.258
				s-5.132-11.236-17.435-9.095c-12.45,2.168-14.546,14.496-14.546,14.496s-32.245-5.516-25.047,25.065L65.465,509.66z"/>
			<g>
				<g>
					<path fill="#C1AA95" d="M114.376,595.104c-12.28,0-14.255-10.549-14.275-10.655l1.349-0.236
						c0.069,0.388,1.819,9.525,12.926,9.525c4.686,0,8.285-1.607,10.695-4.775c1.798-2.363,2.225-4.725,2.229-4.749l1.348,0.235
						C128.628,584.555,126.652,595.104,114.376,595.104z"/>
				</g>
				<g>
					<path fill="#F9B9C7" d="M124.82,571.925c-1.782-6.625-10.444-6.625-10.444-6.625s-8.664,0-10.446,6.625
						c-1.208,4.489,5.604,12.379,10.446,12.379C119.216,584.304,126.027,576.414,124.82,571.925z"/>
					<g>
						<ellipse cx="142.83" cy="543.867" rx="4.217" ry="5.681"/>
						<ellipse cx="87.241" cy="543.867" rx="4.217" ry="5.681"/>
					</g>
				</g>
			</g>
		</g>
	</g>
	<g>
		<path fill="#FFCC57" d="M611.018,262.435c0,0,14.998-16.696,21.182-20.5c6.185-3.804,21.097,0.924,17.46,15.11
			c-3.638,14.186-30.19,19.642-30.19,19.642L611.018,262.435z"/>
		<g>
			<g>
				<g>
					<g>
						<path fill="#FFCC57" d="M545.196,262.435c0,0-14.999-16.696-21.183-20.5c-6.185-3.804-21.097,0.924-17.46,15.11
							c3.638,14.186,30.19,19.642,30.19,19.642L545.196,262.435z"/>
						<path fill="#7E4A23" d="M543.665,263.936c0,0-9.545-10.625-13.48-13.046c-3.936-2.421-13.426,0.588-11.111,9.616
							c2.314,9.027,19.213,12.5,19.213,12.5L543.665,263.936z"/>
					</g>
					<path fill="#7E4A23" d="M612.548,263.936c0,0,9.545-10.625,13.48-13.046c3.936-2.421,13.426,0.588,11.111,9.616
						c-2.314,9.027-19.213,12.5-19.213,12.5L612.548,263.936z"/>
				</g>
				<g>
					<path fill="#7E4A23" d="M604.698,232.492c0-4.52-3.664-8.184-8.185-8.184s-8.184,3.664-8.184,8.184
						c0,3.392,2.063,6.301,5.004,7.543l-5.004,16.02l5.599,3.506l3.001-18.905C601.256,240.437,604.698,236.871,604.698,232.492z"/>
					<path fill="#7E4A23" d="M551.074,232.492c0-4.52,3.663-8.184,8.184-8.184s8.184,3.664,8.184,8.184
						c0,3.392-2.063,6.301-5.004,7.543l5.004,16.02l-5.599,3.506l-3.003-18.905C554.516,240.437,551.074,236.871,551.074,232.492z"
						/>
				</g>
			</g>
			<g>
				<ellipse fill="#FFCC57" cx="577.851" cy="326.306" rx="60.756" ry="76.219"/>
				<g>
					<g>
						<ellipse cx="606.653" cy="325.334" rx="4.365" ry="5.88"/>
						<ellipse cx="549.12" cy="325.334" rx="4.365" ry="5.88"/>
					</g>
					<g>
						<path fill="#FFF6B5" d="M577.851,402.524c19.773,0,37.335-11.857,48.43-30.206c-8.823-19.539-27.19-32.98-48.43-32.98
							c-21.238,0-39.605,13.441-48.43,32.98C540.516,390.667,558.077,402.524,577.851,402.524z"/>
						<g>
							<g>
								<g>
									<path fill="#C1AA95" d="M577.887,386.002c-12.708,0-14.755-10.92-14.773-11.029l1.396-0.245
										c0.07,0.403,1.885,9.858,13.378,9.858c4.851,0,8.574-1.664,11.07-4.942c1.86-2.445,2.302-4.89,2.306-4.914l1.396,0.243
										C592.64,375.082,590.594,386.002,577.887,386.002z"/>
								</g>
							</g>
							<g>
								<ellipse fill="#7E4A23" cx="586.661" cy="361.13" rx="4.82" ry="2.24"/>
								<ellipse fill="#7E4A23" cx="569.111" cy="361.13" rx="4.819" ry="2.24"/>
							</g>
						</g>
					</g>
				</g>
				<g>
					<defs>
						<ellipse id="SVGID_1_" cx="577.851" cy="326.306" rx="60.756" ry="76.219"/>
					</defs>
					<clipPath id="SVGID_2_">
						<use xlink:href="#SVGID_1_"  overflow="visible"/>
					</clipPath>
					<g clip-path="url(#SVGID_2_)">
						<path fill="#F99C15" d="M596.514,253.755c0,0-1.567,10.927-3.855,17.474c-2.287,6.547,9.851-0.817,17.24-9.684l-8.762-9.594
							L596.514,253.755z"/>
						<path fill="#F99C15" d="M625.022,278.273c0,0-15.91,9.971-18.37,14.558c-2.459,4.586,12.51,5.617,26.485,1.827
							c13.976-3.788-2.518-14.699-2.518-14.699L625.022,278.273z"/>
						<path fill="#F99C15" d="M635.576,302.484c0,0-21.009,4.756-24.559,6.21c-3.551,1.454,12.136,10.4,27.39,11.384
							c15.253,0.982,10.16-13.566,10.16-13.566L635.576,302.484z"/>
						<path fill="#F99C15" d="M557.951,253.755c0,0,1.567,10.927,3.855,17.474c2.288,6.547-9.851-0.817-17.239-9.684l8.762-9.594
							L557.951,253.755z"/>
						<path fill="#F99C15" d="M529.442,278.273c0,0,15.911,9.971,18.37,14.558c2.46,4.586-12.509,5.617-26.484,1.827
							c-13.976-3.788,2.517-14.699,2.517-14.699L529.442,278.273z"/>
						<path fill="#F99C15" d="M518.889,302.484c0,0,21.009,4.756,24.56,6.21s-12.137,10.4-27.39,11.384
							c-15.253,0.982-10.161-13.566-10.161-13.566L518.889,302.484z"/>
					</g>
				</g>
			</g>
		</g>
	</g>
	<g>
		<path fill="#A2D063" d="M413.373,288.833c-23.303-41.154-65.313-43.073-70.208-43.156v-0.004c0,0-0.099,0-0.239,0.001
			c-0.144-0.001-0.24-0.001-0.24-0.001v0.004c-4.891,0.083-46.903,2.002-70.208,43.156c-24.771,43.745,3.625,82.238,29,90.404
			c23.756,7.646,28.979,7.11,41.447,7.012c12.467,0.099,17.691,0.634,41.448-7.012C409.748,371.07,438.144,332.577,413.373,288.833z
			"/>
		<g>
			<g>
				<g>
					<g>
						<circle fill="#A2D063" cx="391.648" cy="264.895" r="24.356"/>
						<g>
							<circle fill="#FFFFFF" cx="391.649" cy="264.895" r="11.728"/>
							<circle cx="391.65" cy="264.895" r="8.286"/>
							<circle fill="#FFFFFF" cx="397.123" cy="260.908" r="4.3"/>
						</g>
					</g>
					<g>
						<circle fill="#A2D063" cx="291.938" cy="264.895" r="24.356"/>
						<g>
							<circle fill="#FFFFFF" cx="291.938" cy="264.895" r="11.727"/>
							<circle cx="291.939" cy="264.895" r="8.287"/>
							<circle fill="#FFFFFF" cx="297.412" cy="260.908" r="4.3"/>
						</g>
					</g>
				</g>
				<g>
					
						<ellipse transform="matrix(0.9445 -0.3284 0.3284 0.9445 -78.2294 131.3842)" fill="#6FA536" cx="349.883" cy="297.311" rx="3.841" ry="6.594"/>
					
						<ellipse transform="matrix(-0.9446 -0.3283 0.3283 -0.9446 555.7042 688.4433)" fill="#6FA536" cx="335.968" cy="297.311" rx="3.842" ry="6.594"/>
				</g>
			</g>
			<path fill="#6FA536" d="M396.043,334.755l-0.037,2.142c1.976,0.034,3.515,0.395,4.725,0.885
				c-1.938,4.188-12.322,20.204-57.84,20.662c-45.437-0.457-55.865-16.416-57.829-20.639c1.218-0.504,2.776-0.873,4.785-0.908
				l-0.039-2.142c-8.381,0.149-10.541,5.403-10.628,5.626l1.989,0.791c0.038-0.09,0.563-1.282,2.102-2.386
				c2.32,5.063,13.075,20.683,57.624,21.567v0.043c0.675,0,1.335-0.006,1.997-0.013c0.661,0.007,1.321,0.013,1.996,0.013v-0.043
				c44.661-0.888,55.357-16.584,57.641-21.605c1.58,1.113,2.117,2.332,2.154,2.424l1.99-0.791
				C406.584,340.158,404.424,334.904,396.043,334.755z"/>
		</g>
	</g>
	<g>
		<g>
			<g>
				<g>
					<path fill="#E8E8E8" d="M152.085,258.699c0,0,33.338-12.291,47.533-4.581c14.193,7.709-6.681,25.907-16.546,29.649
						c-9.865,3.743-14.873,3.68-14.873,3.68l-18.954-16.882L152.085,258.699z"/>
					<path fill="#3D3D3D" d="M203.962,258.66c-0.643-1.723-2.014-3.274-4.345-4.542c-14.194-7.71-48.221,4.801-48.221,4.801
						l-3.001,12.281C148.396,271.2,183.169,252.543,203.962,258.66z"/>
					<path fill="#FFFFFF" d="M157.248,272.835c0,0,29.561-13.464,36.311-10.119c6.749,3.346-13.845,19.138-23.874,20.457
						L157.248,272.835z"/>
				</g>
				<g>
					<path fill="#E8E8E8" d="M72.875,258.699c0,0-33.339-12.291-47.533-4.581c-14.194,7.709,6.68,25.907,16.545,29.649
						c9.866,3.743,14.874,3.68,14.874,3.68l18.954-16.882L72.875,258.699z"/>
					<path fill="#3D3D3D" d="M20.998,258.66c0.643-1.723,2.014-3.274,4.345-4.542c14.193-7.71,47.945,4.619,47.945,4.619
						l3.334,12.462C76.622,271.2,41.791,252.543,20.998,258.66z"/>
					<path fill="#FFFFFF" d="M67.711,272.835c0,0-29.561-13.464-36.311-10.119c-6.748,3.346,13.846,19.138,23.873,20.457
						L67.711,272.835z"/>
				</g>
			</g>
			<g>
				<path fill="#E8E8E8" d="M134.977,254.083c0,0,6.915-11.443,5.095-20.903c0,0-0.728-6.549,4.73-8.004
					c5.458-1.456,12.736,4.206,9.097,19.386c-3.639,15.181-6.656,16.408-6.656,16.408L134.977,254.083z"/>
				<path fill="#E8E8E8" d="M91.979,253.177c0,0-6.915-11.442-5.095-20.903c0,0,0.728-6.549-4.73-8.005s-12.736,4.206-9.097,19.387
					c3.639,15.181,6.656,16.408,6.656,16.408L91.979,253.177z"/>
			</g>
		</g>
		<g>
			<path fill="#E8E8E8" d="M166.777,352.549c5.301-11.317,8.354-24.491,8.354-38.566c0-42.11-27.211-76.249-60.779-76.249
				s-60.779,34.138-60.779,76.249c0,14.075,3.052,27.249,8.354,38.566c-4.599,4.822-7.212,10.35-7.212,16.225
				c0,18.783,26.7,34.011,59.637,34.011c32.936,0,59.636-15.228,59.636-34.011C173.988,362.898,171.375,357.371,166.777,352.549z"/>
			<g>
				<path d="M133.962,306.785c0,6.688-1.955,12.107-4.366,12.107c-2.412,0-4.367-5.42-4.367-12.107
					c0-6.683,1.955-12.103,4.367-12.103C132.007,294.683,133.962,300.103,133.962,306.785z"/>
				<path d="M102.606,306.785c0,6.688-1.955,12.107-4.366,12.107c-2.412,0-4.367-5.42-4.367-12.107
					c0-6.683,1.955-12.103,4.367-12.103C100.651,294.683,102.606,300.103,102.606,306.785z"/>
			</g>
			<path fill="#3D3D3D" d="M107.966,238.155c-21.617,2.832-39.853,19.881-48.684,43.558c4.379,4.184,18.791,4.854,26.279-1.129
				c8.119-6.487,25.357-1.518,28.902-9.384C118.003,263.342,107.988,238.208,107.966,238.155z"/>
			<path fill="#3D3D3D" d="M82.029,328.918c0.948-4.728,0.506-13.466-6.314-16.585c-6.788-3.104-21.612-6.815-21.758-6.852
				c-0.247,2.792-0.385,5.626-0.385,8.501c0,14.075,3.052,27.249,8.354,38.566c-1.436,1.505-2.652,3.087-3.682,4.719
				c12.545-4.627,32.833-12.893,29.006-16.715C81.779,335.088,81.081,333.646,82.029,328.918z"/>
			<g>
				<path fill="#EFEFEF" d="M174.21,368.988c0,18.664-26.856,33.796-59.984,33.796c-33.128,0-59.984-15.132-59.984-33.796
					c0-18.662,26.855-33.793,59.984-33.793C147.354,335.195,174.21,350.326,174.21,368.988z"/>
				<ellipse cx="130.737" cy="369.729" rx="4.297" ry="4.394"/>
				<ellipse cx="99.363" cy="369.729" rx="4.297" ry="4.394"/>
			</g>
			<path fill="#3D3D3D" d="M175.131,313.982c0-9.332-1.342-18.27-3.789-26.535c-0.087,0.003-8.393,0-10.465,10.541
				c-1.342,6.825-0.041,15.754-2.294,23.703c-3.704,13.072,6.005,14.844,12.076,20.984
				C173.535,333.817,175.131,324.137,175.131,313.982z"/>
		</g>
	</g>
	<g>
		<path fill="#925D00" d="M580.313-11.159v-0.033c-0.651,0-1.288,0.011-1.933,0.017c-0.646-0.005-1.282-0.017-1.934-0.017v0.033
			c-86.373,1.398-110.479,49.92-101.609,120.026c9.001,71.142,97.431,79.615,103.425,79.615s-4.065,0,0.235,0
			s94.424-8.473,103.425-79.615C690.793,38.761,666.688-9.761,580.313-11.159z"/>
		<g>
			<g>
				<g>
					<g>
						<path fill="#F5B456" d="M615.231,41.395c0,0,15.207-18.221,20.207-17.721s18.5,22.707,19,26.854s-22,13.146-22,13.146
							L615.231,41.395z"/>
						<path fill="#E66B3E" d="M619.384,46.861c0,0,8.746-10.479,11.621-10.191c2.875,0.287,10.639,13.059,10.926,15.443
							c0.289,2.385-12.652,7.561-12.652,7.561L619.384,46.861z"/>
					</g>
					<g>
						<path fill="#F5B456" d="M542.138,41.395c0,0-15.207-18.221-20.207-17.721s-18.5,22.707-19,26.854s22,13.146,22,13.146
							L542.138,41.395z"/>
						<path fill="#E66B3E" d="M537.987,46.861c0,0-8.746-10.479-11.621-10.191c-2.877,0.287-10.641,13.059-10.928,15.443
							s12.652,7.561,12.652,7.561L537.987,46.861z"/>
					</g>
				</g>
				<path fill="#F5B456" d="M602.112,161.131c0.133-0.143,0.264-0.285,0.398-0.421c56.627-9.287,46.395-64.712,37.018-93.608
					c-10.516-32.4-55.408-33.394-60.678-33.394c-5.271,0-50.164,0.993-60.678,33.394c-9.533,29.369-19.949,86.145,39.846,94.029
					H602.112z"/>
				<path fill="#F7CC8C" d="M579.569,128.504c-32.646-22.093-57.645-6.579-65.855-0.002c5.113,16.048,17.816,29.137,44.305,32.629
					h0.377c3.369,7.019,11.916,12.006,21.934,12.006c10.168,0,18.824-5.139,22.086-12.324c0.031-0.034,0.063-0.069,0.096-0.103
					c24.688-4.049,36.664-16.867,41.547-32.433C617.53,104.225,579.569,128.504,579.569,128.504z"/>
				<g>
					<g>
						<ellipse cx="605.401" cy="88.674" rx="4" ry="8.419"/>
						<ellipse cx="552.677" cy="88.674" rx="4" ry="8.419"/>
					</g>
					<g>
						<g>
							<path fill="#E66B3E" d="M579.458,149.044c-19.078,0-22.148-16.393-22.178-16.557l2.096-0.368
								c0.105,0.604,2.828,14.799,20.082,14.799c7.281,0,12.871-2.497,16.617-7.42c2.793-3.671,3.457-7.339,3.463-7.376l2.096,0.365
								C601.604,132.651,598.532,149.044,579.458,149.044z"/>
						</g>
					</g>
					<path fill="#C77B00" d="M593.923,120.235c-2.297-8.541-13.467-8.541-13.467-8.541s-11.168,0-13.467,8.541
						c-1.557,5.79,7.225,13.241,13.467,13.241S595.479,126.025,593.923,120.235z"/>
				</g>
			</g>
			<g>
				<g>
					<g>
						<path fill="#E66B3E" d="M609.681,122.77l-0.557-0.832c0.297-0.196,30.047-19.65,73.084-10.732l-0.203,0.979
							C639.376,103.353,609.972,122.574,609.681,122.77z"/>
					</g>
					<g>
						<path fill="#E66B3E" d="M676.448,139.472c-25.477-21.802-64.916-8.214-65.313-8.072l-0.334-0.943
							c0.402-0.141,40.379-13.925,66.297,8.256L676.448,139.472z"/>
					</g>
					<g>
						<path fill="#E66B3E" d="M673.726,167.083c-21.607-25.451-63.916-27.229-64.342-27.243l0.035-1
							c0.43,0.016,43.178,1.813,65.068,27.597L673.726,167.083z"/>
					</g>
				</g>
				<g>
					<g>
						<path fill="#E66B3E" d="M547.079,122.77l0.557-0.832c-0.297-0.196-30.047-19.65-73.084-10.732l0.203,0.979
							C517.384,103.353,546.788,122.574,547.079,122.77z"/>
					</g>
					<g>
						<path fill="#E66B3E" d="M480.312,139.472c25.477-21.802,64.916-8.214,65.313-8.072l0.334-0.943
							c-0.402-0.141-40.379-13.925-66.297,8.256L480.312,139.472z"/>
					</g>
					<g>
						<path fill="#E66B3E" d="M483.034,167.083c21.607-25.451,63.916-27.229,64.342-27.243l-0.035-1
							c-0.43,0.016-43.178,1.813-65.068,27.597L483.034,167.083z"/>
					</g>
				</g>
			</g>
		</g>
	</g>
	<g>
		<g>
			<g>
				<g>
					<path fill="#908F93" d="M158.654,26.284c0,0,21.87-27.08,47.899-22.623c26.03,4.457,26.277,105.014-11.056,105.322
						c-37.333,0.312-36.174-12.741-36.174-12.741L158.654,26.284z"/>
					<path fill="#E5C5DD" d="M174.46,41.603c0,0,10.979-13.594,24.045-11.356c13.067,2.237,13.191,52.717-5.55,52.873
						c-18.741,0.156-18.159-6.397-18.159-6.397L174.46,41.603z"/>
				</g>
				<g>
					<path fill="#908F93" d="M66.306,26.284c0,0-21.87-27.08-47.899-22.623C-7.623,8.118-7.871,108.675,29.462,108.983
						c37.333,0.312,36.174-12.741,36.174-12.741L66.306,26.284z"/>
					<path fill="#E5C5DD" d="M50.5,41.603c0,0-10.979-13.594-24.045-11.356c-13.067,2.237-13.191,52.717,5.55,52.873
						c18.741,0.156,18.159-6.397,18.159-6.397L50.5,41.603z"/>
				</g>
			</g>
			<path fill="#908F93" d="M136.952,127.002c56.627-9.287,46.395-64.712,37.017-93.609C163.454,0.993,118.561,0,113.291,0
				S63.128,0.993,52.613,33.393c-9.532,29.37-19.949,86.145,39.846,94.03c2.115,1.643,3.834,3.726,4.414,6.338
				c1.932,8.692,4.346,31.87,29.938,43.459c0,0,15.452,1.932,17.384-14.486c0,0-16.247-9.787-13.349-22.343
				C132.384,133.729,134.283,129.688,136.952,127.002z"/>
		</g>
		<g>
			<g>
				<circle fill="#FFFFFF" cx="87.449" cy="60.741" r="7.101"/>
				<circle cx="87.449" cy="60.741" r="5.018"/>
				<circle fill="#FFFFFF" cx="90.763" cy="58.327" r="2.604"/>
			</g>
			<g>
				<circle fill="#FFFFFF" cx="140.114" cy="60.741" r="7.101"/>
				<circle cx="140.115" cy="60.741" r="5.018"/>
				<circle fill="#FFFFFF" cx="143.428" cy="58.327" r="2.604"/>
			</g>
		</g>
		<g>
			<g>
				<g>
					<path fill="#6B6B6D" d="M101.559,89.377l-0.979-1.306c0.136-0.103,13.701-10.047,26.687,0.008l-0.999,1.29
						C114.278,80.086,102.072,88.993,101.559,89.377z"/>
				</g>
				<g>
					<path fill="#6B6B6D" d="M101.559,98.703l-0.979-1.305c0.136-0.103,13.701-10.047,26.687,0.007l-0.999,1.29
						C114.278,89.412,102.072,98.319,101.559,98.703z"/>
				</g>
				<g>
					<path fill="#6B6B6D" d="M101.559,109.104l-0.979-1.305c0.136-0.103,13.701-10.048,26.687,0.007l-0.999,1.29
						C114.278,99.814,102.072,108.721,101.559,109.104z"/>
				</g>
				<g>
					<path fill="#6B6B6D" d="M101.559,119.927l-0.979-1.305c0.136-0.103,13.701-10.048,26.687,0.007l-0.999,1.29
						C114.278,110.636,102.072,119.543,101.559,119.927z"/>
				</g>
				<g>
					<path fill="#6B6B6D" d="M102.265,133.466l-1.193-1.111c0.115-0.125,11.709-12.311,26.268-4.709l-0.756,1.446
						C113.143,122.074,102.702,132.997,102.265,133.466z"/>
				</g>
				<g>
					<path fill="#6B6B6D" d="M104.208,144.954l-1.251-1.046c0.109-0.131,11.039-12.915,25.981-6.097l-0.678,1.484
						C114.464,133.001,104.619,144.464,104.208,144.954z"/>
				</g>
				<g>
					<path fill="#6B6B6D" d="M109.12,155.518l-1.134-0.876c0.091-0.119,9.253-11.713,22.602-6.234l-0.545,1.325
						C117.719,144.676,109.464,155.074,109.12,155.518z"/>
				</g>
			</g>
			<path fill="#6B6B6D" d="M140.825,163.242c0,0-10.139-1.25-13.485,11.5C127.339,174.742,138.406,175.742,140.825,163.242z"/>
		</g>
	</g>
	<g>
		<g>
			<g>
				<circle fill="#F29700" cx="281.794" cy="37.393" r="29.137"/>
				<circle fill="#E66B3E" cx="281.794" cy="37.393" r="19.02"/>
			</g>
			<g>
				<circle fill="#F29700" cx="401.284" cy="37.393" r="29.137"/>
				<circle fill="#E66B3E" cx="401.284" cy="37.393" r="19.021"/>
			</g>
		</g>
		<g>
			<path fill="#F29700" d="M407.419,44.847c-21.986-22.467-50.235-24.746-62.733-25.215V19.55c0,0-0.617,0.001-1.703,0.029
				c-1.085-0.028-1.703-0.029-1.703-0.029v0.083c-12.499,0.469-41.794,1.769-62.733,25.215
				c-28.875,32.333-18.292,77.421-2.96,92.754c14.812,14.811,33.475,31.001,65.693,31.399v0.03c0.572,0.014,1.132-0.02,1.703-0.014
				c0.571-0.005,1.13,0.028,1.703,0.014V169c32.218-0.397,50.882-16.588,65.692-31.399
				C425.71,122.269,439.061,77.181,407.419,44.847z"/>
			<g>
				<defs>
					<path id="SVGID_3_" d="M407.419,44.847c-21.986-22.467-50.235-24.746-62.733-25.215V19.55c0,0-0.617,0.001-1.703,0.029
						c-1.085-0.028-1.703-0.029-1.703-0.029v0.083c-12.499,0.469-41.794,1.769-62.733,25.215
						c-28.875,32.333-18.292,77.421-2.96,92.754c14.812,14.811,33.475,31.001,65.693,31.399v0.03
						c0.572,0.014,1.132-0.02,1.703-0.014c0.571-0.005,1.13,0.028,1.703,0.014V169c32.218-0.397,50.882-16.588,65.692-31.399
						C425.71,122.269,439.061,77.181,407.419,44.847z"/>
				</defs>
				<clipPath id="SVGID_4_">
					<use xlink:href="#SVGID_3_"  overflow="visible"/>
				</clipPath>
				<path clip-path="url(#SVGID_4_)" fill="#FEFEFE" d="M342.982,111.968c-33.803,0-61.592,15.336-64.858,34.97
					c15.5,11.566,37.691,21.748,63.155,22.062v0.03c0.572,0.014,1.132-0.02,1.703-0.014c0.571-0.005,1.13,0.028,1.703,0.014V169
					c25.463-0.314,47.654-10.495,63.154-22.061C404.573,127.305,376.784,111.968,342.982,111.968z"/>
				<g clip-path="url(#SVGID_4_)">
					<polygon fill="#670004" points="307.058,23.328 323.902,54.755 321.824,20.71 					"/>
					<path fill="#670004" d="M326.187,20.81l15.61,31.845l15.754-32.432l-11.1-10.176c0,0-19.37,5.147-20.265,6.188
						C325.292,17.274,326.187,20.81,326.187,20.81z"/>
					<polygon fill="#670004" points="375.828,22.167 359.777,54.755 361.063,19.55 					"/>
					<polygon fill="#670004" points="425.669,65.358 401.602,77.283 431.432,87.891 					"/>
					<polygon fill="#670004" points="427.803,100.692 397.434,91.212 423.137,125.37 					"/>
					<polygon fill="#670004" points="261.675,65.358 285.743,77.283 255.912,87.891 					"/>
					<polygon fill="#670004" points="259.541,100.692 289.911,91.212 264.208,125.37 					"/>
				</g>
			</g>
			<g>
				<g>
					<g>
						<circle fill="#FFFFFF" cx="309.394" cy="94.292" r="9.057"/>
						<circle cx="309.394" cy="94.292" r="6.4"/>
						<circle fill="#FFFFFF" cx="313.621" cy="91.213" r="3.321"/>
					</g>
					<g>
						<circle fill="#FFFFFF" cx="376.571" cy="94.292" r="9.057"/>
						<circle cx="376.572" cy="94.292" r="6.4"/>
						<circle fill="#FFFFFF" cx="380.798" cy="91.213" r="3.321"/>
					</g>
				</g>
				<g>
					<g>
						<path fill="#B7B7BC" d="M341.943,147.322c-19.853,0-23.048-17.058-23.079-17.229l2.181-0.383
							c0.109,0.629,2.943,15.4,20.898,15.4c7.577,0,13.394-2.599,17.292-7.721c2.906-3.82,3.597-7.637,3.603-7.676l2.181,0.38
							C364.988,130.264,361.792,147.322,341.943,147.322z"/>
					</g>
				</g>
				<path fill="#E96D46" d="M359.554,109.076c-2.827-10.51-16.571-10.51-16.571-10.51s-13.745,0-16.572,10.51
					c-1.917,7.125,8.89,16.293,16.572,16.293C350.661,125.37,361.469,116.201,359.554,109.076z"/>
			</g>
		</g>
	</g>
</g>
</svg>
