<?xml version="1.0" encoding="utf-8"?>
<!-- Generated by IcoMoon.io -->
<!DOCTYPE svg PUBLIC "-//W3C//DTD SVG 1.1//EN" "http://www.w3.org/Graphics/SVG/1.1/DTD/svg11.dtd">
<svg version="1.1" xmlns="http://www.w3.org/2000/svg" xmlns:xlink="http://www.w3.org/1999/xlink" width="16" height="16" viewBox="0 0 16 16">
<path fill="#383838" d="M14 5.101v-4.434h-3.333v1.975l-2.679-1.975-7.988 6h2v8.667h12v-8.667l2 0.001-2-1.567zM8 14h-2.667v-5.333h2.667v5.333zM12.667 14h-4v-6h-4v6h-1.333v-8l4.673-3.333 4.661 3.333v8zM12.667 3.421l-0.667-0.445v-0.977h0.667v1.421zM12 9.333h-2.667v2.667h2.667v-2.667zM11.333 11.333h-1.333v-1.333h1.333v1.333zM7.333 11.333h-0.667v0.667h0.667v-0.667z"></path>
</svg>
