<?xml version="1.0" encoding="utf-8"?>
<!-- Generated by IcoMoon.io -->
<!DOCTYPE svg PUBLIC "-//W3C//DTD SVG 1.1//EN" "http://www.w3.org/Graphics/SVG/1.1/DTD/svg11.dtd">
<svg version="1.1" xmlns="http://www.w3.org/2000/svg" xmlns:xlink="http://www.w3.org/1999/xlink" width="16" height="16" viewBox="0 0 16 16">
<path fill="#383838" d="M5.714 12.571q0-0.464-0.339-0.804t-0.804-0.339-0.804 0.339-0.339 0.804 0.339 0.804 0.804 0.339 0.804-0.339 0.339-0.804zM2.286 8h3.429v-2.286h-1.411q-0.116 0-0.196 0.080l-1.741 1.741q-0.080 0.080-0.080 0.196v0.268zM13.714 12.571q0-0.464-0.339-0.804t-0.804-0.339-0.804 0.339-0.339 0.804 0.339 0.804 0.804 0.339 0.804-0.339 0.339-0.804zM16 2.857v9.143q0 0.134-0.036 0.237t-0.121 0.165-0.147 0.103-0.21 0.054-0.201 0.018-0.228 0-0.201-0.004q0 0.946-0.67 1.616t-1.616 0.67-1.616-0.67-0.67-1.616h-3.429q0 0.946-0.67 1.616t-1.616 0.67-1.616-0.67-0.67-1.616h-0.571q-0.027 0-0.201 0.004t-0.228 0-0.201-0.018-0.21-0.054-0.147-0.103-0.121-0.165-0.036-0.237q0-0.232 0.17-0.402t0.402-0.17v-2.857q0-0.071-0.004-0.313t0-0.339 0.022-0.308 0.058-0.33 0.125-0.272 0.201-0.268l1.768-1.768q0.17-0.17 0.451-0.286t0.522-0.116h1.429v-1.714q0-0.232 0.17-0.402t0.402-0.17h9.143q0.232 0 0.402 0.17t0.17 0.402z"></path>
</svg>
